<?xml version="1.0" standalone="no"?>
<!DOCTYPE svg PUBLIC "-//W3C//DTD SVG 1.1//EN" "http://www.w3.org/Graphics/SVG/1.1/DTD/svg11.dtd">
<svg width="100%" height="100%" viewBox="0 0 100 100" version="1.1" xmlns="http://www.w3.org/2000/svg" xmlns:xlink="http://www.w3.org/1999/xlink" xml:space="preserve" style="fill-rule:evenodd;clip-rule:evenodd;stroke-linejoin:round;stroke-miterlimit:1.41421;">
    <g>
        <g>
            <path d="M27.172,12C32.1681,12 36.2183,15.9678 36.2183,20.8627C36.2183,25.7575 32.1681,29.7254 27.172,29.7254C22.1758,29.7254 18.1248,25.7575 18.1248,20.8627C18.1248,15.9678 22.1758,12 27.172,12Z" style="fill:rgb(219,204,181);"/>
            <path d="M72.8288,12C77.825,12 81.8752,15.9678 81.8752,20.8627C81.8752,25.7575 77.825,29.7254 72.8288,29.7254C67.8326,29.7254 63.7825,25.7575 63.7825,20.8627C63.7825,15.9678 67.8326,12 72.8288,12Z" style="fill:rgb(219,204,181);"/>
            <path d="M43.7106,21.1057L43.7146,21.1057C43.7114,21.0242 43.7019,20.945 43.7019,20.8627C43.7019,17.5258 46.4704,14.8207 49.8856,14.8207C53.3008,14.8207 56.0693,17.5258 56.0693,20.8627L56.367,27.0567C57.9661,25.4591 58.9557,23.2749 58.9557,20.8627C58.9557,15.9678 54.8953,12 49.8864,12C44.8775,12 40.8171,15.9678 40.8171,20.8627C40.8171,23.2971 41.8225,25.5011 43.4486,27.1034L43.7106,21.1057Z" style="fill:rgb(219,204,181);"/>
            <path d="M44.7905,47.974L30.0124,54.1554C26.731,55.5273 24.7384,58.8816 25.1057,62.4124L29.5018,83.1865C30.0251,85.6581 32.1761,87.4512 34.7062,87.5248L50.8301,87.9974C53.65,88.0703 56.2799,86.5851 57.6685,84.1357L72.775,57.4883C73.6728,55.9041 73.1415,53.8949 71.578,52.9591C70.2464,52.1619 68.5412,52.3781 67.4511,53.4824L60.1804,60.8473C58.3738,62.6768 55.2507,61.4688 55.1518,58.903L53.6856,20.7835C53.608,18.7664 51.9463,17.1712 49.9236,17.1712C47.9175,17.1712 46.2637,18.7402 46.1632,20.7392L44.7905,47.974Z" style="fill:rgb(219,204,181);fill-rule:nonzero;"/>
        </g>
    </g>
</svg>
