<?xml version="1.0" encoding="utf-8"?>
<!-- Generator: Adobe Illustrator 15.0.0, SVG Export Plug-In . SVG Version: 6.00 Build 0)  -->
<!DOCTYPE svg PUBLIC "-//W3C//DTD SVG 1.1//EN" "http://www.w3.org/Graphics/SVG/1.1/DTD/svg11.dtd">
<svg version="1.1" xmlns="http://www.w3.org/2000/svg" xmlns:xlink="http://www.w3.org/1999/xlink" x="0px" y="0px" width="430px"
	 height="282.699px" viewBox="0 0 430 282.699" enable-background="new 0 0 430 282.699" xml:space="preserve">
<g id="Layer_1" display="none">
	<path display="inline" fill="#DBCCB5" d="M251.613,273.53c19.527-4.881,33.196-13.669,33.196-23.433
		c0-9.763-20.504-15.622-25.385-7.811c-0.977,1.953-0.977,3.905,0.976,3.905c2.93-0.976,5.858,0.977,8.787,4.882
		c1.953,3.905,1.953,6.834-1.952,10.74c-9.764,7.811-25.386,11.716-41.983,9.764c-26.362-3.905-36.125-12.692-26.362-23.433
		l1.953-2.929l-2.929,2.929c-2.929,2.929-4.882,6.834-4.882,9.764c0,3.905,4.882,8.787,10.74,11.716
		c3.905,1.953,7.811,2.929,17.575,4.882C227.204,275.483,243.803,274.507,251.613,273.53z M217.44,256.932
		c1.953-4.881-1.952-10.74-6.834-12.692c-1.953-0.977-7.811-4.882-11.716-9.764c-10.74-9.764-20.503-14.646-26.362-12.692
		c-1.953,0.976-1.953,3.905,0,4.881c0,0.977,3.905,1.953,6.834,1.953c14.646,2.929,23.433,10.74,25.385,21.479
		c0,1.953,1.953,3.906,3.906,5.858C211.583,258.885,216.465,258.885,217.44,256.932z M247.708,254.003
		c5.858-3.906,6.835-6.834,6.835-15.622c0.976-8.787,0-14.645-4.882-31.243c-1.953-6.834-1.953-7.811-1.953-4.882
		c0,1.953,0,6.834,0.977,10.74c0.977,3.906,1.952,10.74,1.952,16.598c0,14.646-4.882,21.48-14.645,21.48
		c-6.835,0-10.74-2.929-13.67-7.811c-1.952-4.882-1.952-5.858-1.952-17.574c0.977-7.811,0.977-18.551,0.977-23.433v-9.764
		l3.905,0.977c6.834,1.953,17.574,1.953,21.479,0c7.812-3.906,7.812-9.764,0.977-14.646c-5.858-2.929-15.622-0.977-15.622,4.882
		c0,1.953,2.93,2.929,5.858,0.976c6.835-5.858,10.74-5.858,10.74,0c0.977,6.834-15.622,10.74-28.314,5.858
		c-3.905-1.953-4.882-1.953-2.93,1.953c1.953,3.905,1.953,13.669,0,25.385c-4.882,27.338,0.977,39.054,20.504,38.078
		C243.803,255.956,245.755,255.956,247.708,254.003z M242.826,248.145c5.858-2.929,7.811-14.646,4.882-30.267
		c-0.977-3.905-1.953-9.764-1.953-11.716c0-4.882,0-4.882-2.929-2.929c-1.953,0.977-4.882,0.977-7.811,1.953
		c-4.882,0-4.882,0-1.953,0.976c1.953,0,4.882,0,6.835,0c3.905-1.953,5.857-0.976,3.905,0.977c-0.977,0.976-4.882,0.976-9.764,0.976
		h-6.835l-0.976,4.882c-0.977,11.716-0.977,18.551-0.977,22.457c0.977,3.905,0.977,3.905,0,3.905
		c-0.977-0.977-0.977-7.811-0.977-19.527s0-15.622-0.977-11.716c-0.977,11.716-1.952,24.409-0.977,29.291
		c0.977,4.882,3.906,9.764,7.812,11.716C233.062,250.098,238.921,250.098,242.826,248.145z M107.112,239.358
		c4.882-0.977,11.716-1.953,14.646-2.929c13.669-3.905,26.361-12.692,28.314-18.551c0.976-5.858-3.906-12.692-10.74-13.669
		c-2.929-0.977-2.929-0.977,0,0.977c1.953,0.976,4.882,2.929,4.882,4.881c1.953,1.953,1.953,2.929,0,5.858
		c-2.929,6.834-15.622,11.716-39.054,13.669c-16.598,0.977-34.173,0-45.889-3.905c-8.787-1.953-11.716-3.905-14.645-7.811
		c-3.906-3.905-2.929-6.834,2.929-11.716c4.882-4.882,4.882-4.882,1.953-2.929c-1.953,0.977-4.881,2.929-6.834,4.882
		c-2.929,1.953-3.905,3.906-3.905,6.834c0.977,2.929,0.977,5.858,1.953,6.835C46.578,234.476,76.845,241.311,107.112,239.358z
		 M378.54,226.665c14.646-3.905,33.196-11.716,40.031-19.527l2.929-2.929l-2.929-8.787c-9.764-33.196-11.717-72.25-5.858-133.761
		c0.977-7.811,1.952-16.598,1.952-18.551l0.977-4.882l-6.834,3.905c-14.646,6.834-28.314,9.764-41.008,8.787
		c-16.598-0.976-28.314-6.834-23.433-11.716c2.93-2.929,7.812-2.929,16.599,0c3.905,0.977,9.764,1.953,11.716,1.953
		c8.787,0,10.74-5.858,3.906-9.763c-10.74-4.882-29.291-2.929-37.103,3.905c-4.882,4.882-3.905,10.74,3.906,14.646
		c14.646,6.834,42.96,7.811,62.486,0l4.882-0.977l-0.977,2.929c-1.952,8.787-6.834,41.007-7.811,53.7
		c-2.929,26.362-1.952,50.771,3.905,77.132c0.977,6.834,2.93,13.669,2.93,14.646c0.976,2.929-18.551,12.692-33.196,16.598
		c-11.717,2.929-31.244,2.929-42.96,0.976c-17.574-2.929-32.22-9.763-35.149-16.598c-1.952-1.953-1.952-2.929,0-4.882
		c0-1.953,2.93-3.906,4.882-4.882l2.93-0.977h-2.93c-5.857-0.977-9.764,1.953-11.716,6.834c-2.93,4.882-2.93,8.787-0.977,12.693
		c7.811,14.646,32.22,22.456,65.416,21.48C364.871,228.618,372.682,227.642,378.54,226.665z M85.632,218.854
		c17.575-7.811,20.503-7.811,30.267-8.788c8.787-0.976,8.787-0.976,0.977-6.834c-11.716-7.811-29.291-8.787-41.983-1.953
		c-6.834,2.929-8.788,8.787-5.858,13.669c1.953,3.906,10.74,0.977,10.74-2.929c0-5.858-6.835-6.834-6.835-1.953
		c-0.976,2.929-1.953,3.906-1.953,0.977s0.977-4.882,4.882-6.834c5.858-2.929,16.598-2.929,25.385,0l6.835,2.929l-9.764,2.929
		c-4.882,1.953-11.716,4.882-16.598,6.835c-3.906,0.976-8.788,2.929-11.716,2.929c-4.882,0.977-4.882,0-7.811-1.953
		c-2.929-4.882-3.905-9.764-1.953-12.692c0.977-0.977,4.882-3.906,8.787-5.858c8.787-4.882,15.622-9.764,18.551-13.669l1.953-3.905
		l0.977,2.929c0.977,1.953,0.977,4.882,0.977,7.811c-0.977,3.905,0.976,4.882,2.929,0.977c0.977-2.929,0-9.764-2.929-13.669
		l-1.953-2.929l-3.905,4.882c-3.905,6.834-6.834,9.763-18.551,15.622c-4.882,1.953-9.764,4.882-10.74,5.858
		c-2.929,4.882,1.953,17.575,8.787,20.504C68.058,224.712,70.987,223.736,85.632,218.854z M373.658,208.114
		c6.835-0.976,23.433-7.811,22.456-8.787c0,0-3.905,0.977-8.787,1.953c-3.905,0.977-11.716,2.929-16.598,3.906l-7.812,0.976v-8.787
		c0-7.811-0.976-7.811-1.952-7.811c-1.953,0-1.953,0-1.953,8.788v8.787l-8.787-0.977c-14.646-0.976-23.433-4.882-23.433-9.764
		c0-0.976-0.977-1.953-1.952-1.953c-1.953,0-4.882,2.929-4.882,4.882C319.959,209.091,350.226,213.973,373.658,208.114z
		 M130.545,207.138c2.929-3.906,2.929-4.882,0.977-6.834c-1.953-0.977-1.953-1.953-1.953-3.906c0.977-2.929,0-3.905-1.953-4.882
		c-2.929-1.953-5.858-1.953-10.74,0c-4.882,2.929-6.834,4.882-1.953,2.929c9.763-2.929,14.645-0.976,10.74,4.882
		c-1.953,1.953-1.953,2.929,1.953,2.929c3.906,0,4.882,0.976,1.953,1.953c-1.953,0.977-1.953,1.953-1.953,3.905
		S128.592,210.067,130.545,207.138z M121.758,200.304c0.976-1.953,1.953-5.858,0.976-5.858c-1.953,0-6.834,2.929-6.834,3.906h-0.976
		c-0.977,0-0.977,0-0.977,0c0,0.976,2.929,2.929,4.882,2.929C118.829,201.28,119.805,201.28,121.758,200.304z M138.356,199.327
		c1.953,0,3.905-0.976,3.905-0.976c0-0.977-4.882-5.858-5.858-5.858c0,0,0,0,0.977,0.977c0.977,1.953,2.929,4.882,1.953,3.905
		c0,0-1.953,0-1.953,0.977c-1.953,0.976-1.953,0.976-0.977-0.977c0.977-0.977,0.977-0.977,0-1.953c-0.976-1.953-2.929-1.953-4.881,0
		c-0.977,0.976-0.977,1.953,0.976,3.905C135.427,201.28,134.45,201.28,138.356,199.327z M137.379,189.563
		c0.977-0.976,2.929-2.929,2.929-4.882l0.976-1.953h-5.858c-5.858,0-6.834,0-8.787,2.929l-2.929,2.929l2.929,0.976
		c2.929,0,3.905,0,6.834-0.976c1.953-1.953,2.929-2.929,2.929-2.929c-0.976,0-1.953,0-2.929,0c-0.977,0-0.977,0-0.977,0.976
		c0,0,0,0.977-0.976,0.977c-0.977,0-0.977-0.977-0.977-1.953c0.977-1.953,7.811-1.953,7.811,0s-1.953,3.905-4.882,4.882
		c-1.953,0.976-1.953,0.976,0,0.976C134.45,191.516,136.403,190.54,137.379,189.563z M112.97,189.563
		c1.953,0,1.953-1.953-0.976-3.905c-2.929-2.929-5.858-1.953-8.787,0.976c-2.929,1.953-2.929,2.929-0.977,3.906c0,0,2.929,0,4.882,0
		S111.994,189.563,112.97,189.563z M123.71,183.706c0-0.977-1.953-0.977-2.929-0.977c-1.953,0-1.953-0.976-1.953-4.882
		c0.976-3.905,0-4.882-1.953-5.858c-2.929-2.929-6.834-2.929-9.764,0c-1.953,0.976-2.929,0.976-3.905,0.976
		c-1.953-1.953-4.882-1.953-6.835,0.977c-0.976,0.976-1.953,1.953-0.976,1.953c0,0,0.976,0,0.976-0.977
		c1.953-1.953,4.882-1.953,6.835,0c1.953,1.953,1.953,1.953,4.882,0c2.929-2.929,4.881-2.929,7.811,0
		c0.977,0.977,1.953,1.953,0.977,5.858c-0.977,2.929,0,3.905,1.953,3.905c2.929,0,3.905,0,3.905,1.953c0,2.929,0,2.929,0.977,0.977
		C124.687,186.634,124.687,185.658,123.71,183.706z M374.635,184.682c4.882-1.953,6.834-6.834,7.811-17.574
		c0-3.906,1.953-11.716,2.93-16.598c2.929-9.764,2.929-11.716,0.977-14.646l-1.953-1.953l1.953-1.953
		c2.929-1.953,4.881-6.834,3.905-10.74c-0.977-3.905-0.977-3.905-0.977-0.976c-0.977,3.905-2.929,6.834-6.835,9.764l-4.882,1.953
		l2.93,2.929c2.929,1.953,2.929,2.929,1.952,7.811c0,2.929-0.977,7.811-1.952,11.716l-0.977,6.834v-11.716
		c0.977-11.716,0.977-11.716-1.953-14.646c-2.929-3.905-2.929-3.905,2.93-7.811c3.905-1.953,6.834-6.834,6.834-9.764
		c0-1.953,0-1.953,0.977-1.953s1.953-2.929,2.929-5.858c0.977-2.929,3.906-7.811,5.858-11.716
		c4.882-8.787,5.858-12.692,1.953-17.574c-2.93-2.929-3.905-2.929-9.764-2.929c-2.929-0.976-7.812,0-8.787,0l-3.905,0.977
		l5.857,0.976l4.882,0.977h-4.882c-4.882,0.976-4.882,0.976-5.857,4.882c0,3.905-0.977,4.882-7.812,5.858
		c-5.858,0.977-9.764,0-12.692-2.929c-1.953-1.953-1.953-3.905-1.953-8.787v-5.858l-7.811,0.976
		c-9.764,0-18.551,4.882-21.479,11.716c-2.93,4.882-0.977,14.646,3.905,21.48c0.977,1.953,0.977,1.953-0.977,4.882
		c-1.953,1.953-2.929,2.929-2.929,5.858c0,3.905,3.905,11.716,5.857,12.692c0,0,0,0.977,0,1.953
		c-1.952,3.906-0.976,8.788,2.93,16.598c2.929,5.858,3.905,8.788,4.882,16.598c0.976,12.693,2.929,16.598,10.739,19.527
		C354.131,187.611,369.753,187.611,374.635,184.682z M100.278,182.729c0.976-2.929,0.976-6.834-0.977-6.834
		c-0.976,0-3.905,2.929-3.905,3.905c0,1.953,0.976,5.858,2.929,5.858C99.301,185.658,100.278,183.706,100.278,182.729z
		 M245.755,171.013c27.339-5.858,52.724-31.244,51.747-54.676c0-4.882-2.929-11.716-4.882-12.692c-1.952-1.953-1.952-0.977,0,1.953
		c6.835,11.716-4.882,33.196-23.433,44.913c-17.574,11.716-42.959,14.646-64.439,7.811c-24.409-6.835-40.031-23.433-38.078-38.078
		v-3.906l-0.977,3.906c-2.929,4.882-2.929,15.622,0,21.48C176.434,162.226,216.465,176.871,245.755,171.013z M238.921,156.367
		c2.929-1.953,3.905-2.929,2.929-4.882c0,0,0.977-1.953,1.953-2.929c1.952-2.929,0.977-2.929-2.93,0
		c-2.929,1.953-9.763,3.905-12.692,2.929c-0.977,0,0,0,1.953,0c3.905-0.976,7.811-1.953,10.739-4.881
		c0.977-0.977,2.93-1.953,4.882-1.953c0.977,0,1.953-0.976,2.93-0.976c0-0.977,1.952-0.977,2.929-0.977s1.953-0.976,1.953-1.953
		c0.977-0.977,0.977-0.977,1.952-0.977c0.977,1.953,2.93,1.953,2.93,0c0-0.976,0-0.976,0.977-0.976c0.976,0.976,1.952,0,0.976-0.977
		c0,0-0.976-0.976-1.952-0.976s-0.977,0-0.977-0.977h-0.977c-0.977,0-0.977,0-0.977,0c0-0.977-0.976-0.977-1.952-0.977
		c-0.977,0.977-1.953,0-0.977,0c0-0.976,0-1.953-0.977-2.929c-0.977-0.977-0.977-0.977,0-1.953c2.93-3.906,0.977-5.858,0-7.811
		c0-0.977-1.952-2.929-6.834-5.858l-6.835-2.929l1.953-1.953c6.834-6.834,14.646-7.811,26.361-3.905
		c2.929,0.977,6.835,1.953,6.835,1.953s-2.93-1.953-5.858-3.905c-3.905-0.977-6.835-2.929-6.835-2.929
		c0-0.976,0.977-1.953,2.93-2.929c4.882-3.906,10.739-3.906,17.574-0.977c5.858,2.929,3.905,0.977-2.929-2.929
		c-5.858-3.905-13.67-2.929-19.527,0.977c-2.93,2.929-5.858,3.905-7.812,3.905c-4.882,0-9.764,2.929-14.645,7.811
		c-1.953,2.929-2.93,2.929-6.835,2.929c-4.882-0.976-9.764,0.977-15.622,4.882c-1.952,1.953-3.577,2.611-5.858,2.929
		s-7.064,11.346-9.764,10.74c-3.357-1.04-1.953-1.953-4.882-2.929l-4.882-2.929c0,0,0.163-6.965,4.882-10.74
		c13.669-9.764,22.457-10.74,33.197-5.858c9.764,4.882,7.811,1.953-4.882-5.858c-0.977-0.977,1.952-2.929,6.834-6.834
		c5.858-2.929,8.787-2.929,17.574,0l5.858,2.929l-3.905-2.929l-3.905-2.929l3.905-2.929c2.929-2.929,8.787-2.929,14.646-0.977
		c5.858,1.953,5.858,0.977-0.977-1.953c-6.834-3.905-13.669-2.929-18.551,0c-2.929,1.953-4.882,2.929-8.787,2.929
		s-10.74,2.929-15.622,7.811c-2.929,1.953-4.882,2.929-6.834,2.929c-4.882,0-9.764,1.953-16.599,8.787
		c-4.881,4.882-5.858,5.858-5.858,3.905s-0.977-1.953-2.929,0c-0.976,0-1.953,1.953-1.953,3.905c0,1.953-0.976,2.929-0.976,2.929
		c-0.977,0.977-7.811-1.953-9.764-3.905c-0.977-1.953-0.977-1.953-0.977,1.953c0,0.977,0.977,3.905,0.977,4.882
		s0.976,2.929,0.976,2.929c1.953,1.953,7.811,1.953,7.811,0.976c0-0.976-1.953-0.976-2.929-0.976c-0.976,0-2.929,0-3.905-0.977
		c-1.953-0.976-1.953-0.976,2.929-0.976c5.858,0.976,5.858,0.976,5.858,3.905c0.977,7.811,4.882,14.646,8.787,14.646
		c2.929,0,9.764-3.906,9.764-5.858c0-2.929,0.977-2.929,4.882,0l4.881,2.929l-3.905,0.976c-1.953,0-3.906,0-3.906,0
		c-1.953-0.976-1.953,1.953,0,6.835c0,2.929,0.977,3.905,1.953,2.929c0.976,0,1.953-0.976,1.953-2.929
		c0-2.929,3.905-3.906,7.811-0.977c1.952,0.977,4.882,2.929,6.834,3.905c1.953,0.977,1.953,0.977,0.977,0.977
		c-1.953,0-4.882-1.953-6.835-2.929l-4.882-2.929l1.953,2.929c1.953,0.977,1.953,2.929,1.953,2.929
		c-1.953,0,2.929,3.905,5.857,5.858C227.204,158.32,235.016,158.32,238.921,156.367z M201.819,147.58c0-0.976,0-2.929-0.977-2.929
		s-0.977,1.953-0.977,2.929c-0.976,1.953,0,2.929,0.977,2.929S202.795,149.533,201.819,147.58z M198.89,146.604
		c0-1.953-2.929-1.953-2.929,0.976c-0.977,0.977,0,1.953,0.977,1.953C197.914,149.533,198.89,148.557,198.89,146.604z
		 M183.269,133.911c0-0.977-0.977-0.977-0.977-0.977c-0.977,0-0.977,0.977-0.977,1.953c0,0.977,0,1.953,0.977,1.953
		C182.292,136.84,183.269,135.864,183.269,133.911z M272.117,132.935c1.952-1.953,2.929-3.905,2.929-4.882
		c0-0.976,0.977-2.929,0.977-3.905c0.977-2.929,0-2.929-3.905,0.977c-1.953,1.953-3.905,3.905-4.882,3.905c0,0-0.977,0-1.953,0
		s-0.977,0-0.977,0c0-0.977,0-0.977,0.977-0.977c1.953,0,6.835-4.881,7.812-6.834c1.952-3.905,1.952-3.905,0-1.953
		c-1.953,1.953-2.93,2.929-2.93,1.953c0,0,0.977-1.953,1.953-3.905c1.952-1.953,2.929-3.905,2.929-3.905s-1.952,0.976-4.882,2.929
		c-2.929,1.953-4.882,3.906-5.858,3.906c0,0,0-2.929,0-4.882s-0.976-3.906-0.976-3.906c-1.953,0-3.905,0.977-3.905,4.882
		c0,0.977-0.977,2.929-0.977,2.929c-1.953,0.977-1.953,3.906,0,4.882c0.977,0,0.977,1.953,0.977,3.905
		c-0.977,4.882,0.976,7.811,5.857,7.811C268.212,135.864,270.164,134.887,272.117,132.935z M180.339,131.958
		c0.976-0.977,0.976-1.953,0.976-1.953c-0.976-0.977-4.882,0.976-4.882,2.929S179.363,134.887,180.339,131.958z M40.72,129.029
		c1.953-2.929,2.929-7.811,0.977-10.74c-1.953-1.953-5.858-1.953-8.787,0c-4.882,1.953,4.881-5.858,13.669-12.693
		c9.764-5.858,10.74-6.834,8.787-8.787c-1.953-0.977-1.953-0.977-3.905,0c-5.858,4.882-18.551,15.622-20.504,18.551
		c-3.905,4.882-3.905,10.74-0.976,13.669C32.909,130.982,37.791,130.982,40.72,129.029z M115.899,129.029
		c16.598-2.929,30.267-12.693,38.078-28.314c6.834-12.693,5.858-21.48-3.905-26.362l-2.929-1.953l2.929,2.929
		c4.882,4.882,5.858,7.811,4.882,12.692c-5.858,19.527-28.314,32.22-59.558,32.22c-10.74,0.976-27.338-1.953-40.031-4.882
		c-9.764-2.929-10.74-2.929-7.811-0.977c2.929,2.929,20.504,10.74,27.338,12.693C88.562,130.982,102.23,130.982,115.899,129.029z
		 M280.904,127.077c0-0.977,0-0.977,1.953-0.977c0.976,0.977,1.952,0,1.952-0.976c0-1.953-2.929-3.906-3.905-2.929c0,0.977,0,0,0,0
		c0-0.977-0.977-0.977-0.977-0.977c-1.952,0-3.905,4.882-2.929,6.834C277.976,130.006,280.904,129.029,280.904,127.077z
		 M285.786,117.313c1.952-0.977,2.929-2.929,1.952-2.929c0,0-0.976,0-1.952,0.977c-0.977,1.953-2.929,2.929-3.905,2.929
		c-1.953,0-1.953,0,0,0.976C283.833,120.242,283.833,120.242,285.786,117.313z M183.269,117.313c0,0-1.953-0.977-3.906-1.953
		c-0.976-0.977-2.929-1.953-4.882-3.906c-0.976-0.976-0.976-0.976-0.976,0c0,1.953,4.882,6.835,7.811,6.835
		C182.292,118.29,183.269,117.313,183.269,117.313z M114.923,115.36c1.953,0,4.881-0.977,5.858-0.977
		c4.882-0.976,17.575-8.787,21.48-12.692c8.787-7.811,10.74-13.669,4.882-15.622c-0.977,0-0.977-1.953-0.977-2.929
		c0-2.929-3.905-5.858-6.834-4.882c-2.929,0-3.905,0-4.882-2.929c-5.858-8.787-16.598-9.764-23.433-1.953
		c-2.929,2.929-1.953,2.929,1.953,0c0.977-0.977,3.906-1.953,7.811-1.953c4.882-0.977,5.858-0.977,7.811,1.953
		c1.953,1.953,3.905,4.882,3.905,5.858c0.977,2.929,0.977,2.929,1.953,2.929c5.858-2.929,8.788-0.977,6.834,3.905l-0.976,3.906
		h3.905c2.929,0,3.905,0,3.905,0.976c0,4.882-12.692,14.646-24.409,19.527c-12.693,4.882-26.362,4.882-32.22,0.976
		c-2.929-1.953-2.929-2.929-0.977-3.905c2.929-2.929,0.977-6.834-2.929-6.834c-2.929,0-5.858,2.929-5.858,6.834
		c0,2.929,2.929,6.834,7.811,7.811C94.419,117.313,109.065,117.313,114.923,115.36z M284.81,115.36
		c1.953-0.977,2.929-5.858,1.953-8.787c-0.977-1.953-0.977-1.953-4.882,0.976s-3.905,3.905-2.93,3.905
		c0.977,0,2.93-0.976,4.882-2.929c2.93-1.953,2.93-1.953,1.953,0c-0.977,0.976-2.929,2.929-4.882,3.905
		c-2.929,0.977-2.929,0.977-0.977,0.977c1.953,0,3.905,0,4.882-0.977l1.953-1.953l-1.953,1.953
		c-0.977,0.977-1.952,2.929-2.929,2.929s-1.953,0-1.953,0.976C278.951,117.313,282.857,117.313,284.81,115.36z M258.448,111.455
		l1.952-1.953l-2.929-0.976c-3.905-0.977-5.858,0.976-5.858,2.929c0,0.977,0.977,1.953,3.905,1.953
		C255.519,113.408,257.472,112.431,258.448,111.455z M215.488,107.549c-3.905-0.976-7.811,0.977-6.834,2.929
		c0,1.953,1.953,1.953,5.858,0l4.882-1.953L215.488,107.549z M20.216,110.479c1.953-2.929,1.953-8.787-0.977-10.74
		c-3.905-1.953-8.787,1.953-7.811,5.858c0.976,1.953,3.905,2.929,5.858,0.977c1.953-0.977,2.929,0,1.953,1.953
		c-2.929,2.929-8.787,0.976-8.787-3.906c0-2.929,4.882-7.811,15.622-13.669c9.764-5.858,10.74-6.834,9.764-7.811
		c-0.976-1.953-2.929-1.953-10.74,3.905C11.429,96.81,8.5,100.715,8.5,105.597S15.334,114.384,20.216,110.479z M179.363,100.715
		c9.764-6.834,15.622-8.787,24.409-5.858c2.929,0.976,4.882,0.976,4.882,0.976s-0.977-0.976-2.929-2.929l-3.905-1.953l2.929-1.953
		c0.977-0.977,3.906-2.929,5.858-4.882c3.905-1.953,7.811-1.953,15.622,0.977c1.952,0.976,1.952,0,0-0.977l-2.93-1.953l3.905-2.929
		c4.882-2.929,8.788-3.905,13.669-1.953c4.882,1.953,4.882,0-0.976-2.929c-6.835-2.929-11.717-1.953-17.575,2.929
		c-1.952,1.953-2.929,2.929-6.834,2.929c-4.882-0.977-10.74,1.953-14.646,5.858c-1.953,2.929-3.905,3.906-6.834,3.906
		c-5.858,0-11.716,3.905-19.527,13.669C171.552,106.573,171.552,106.573,179.363,100.715z M131.521,103.644
		c0.976-0.977,2.929-2.929,3.905-3.905c1.953-2.929,1.953-2.929,0-3.906c-0.977-0.976-1.953-2.929-1.953-4.882
		c0-3.905,0-3.905-3.906-3.905h-2.929v-3.905c0.976-4.882-0.977-6.834-6.835-6.834c-1.953,0-4.881,0-4.881,0
		c0,0.976,0.976,0.976,1.953,0.976c2.929-0.976,3.905,0,5.858,1.953s2.929,2.929,1.953,6.834c0,3.906,0,3.906,1.953,2.929
		c1.953,0,2.929,0,3.905,0c1.953,0,1.953,2.929,0,5.858c-1.953,1.953-0.977,1.953,0.977,1.953c1.953-0.977,2.929,0,2.929,0.976
		c0,1.953-1.953,2.929-4.882,3.906C125.663,104.62,126.64,104.62,131.521,103.644z M276.999,100.715c0-0.976-1.953-0.976-2.93-0.976
		c-0.976,0.976-1.952,0.976-1.952,0.976s0.977,0.977,1.952,0.977C275.046,101.691,276.999,100.715,276.999,100.715z M195.961,98.762
		c0,0-0.977,0-1.953,0c-1.953,0-2.929,0-2.929,0C191.079,99.739,194.984,99.739,195.961,98.762z M72.939,97.786
		c2.929-1.953,4.882-4.882,5.858-8.787c0-1.953,0-2.929,1.953-1.953c6.834,0.976,13.669-2.929,14.646-9.764
		c0.976-1.953,0.976-1.953,2.929-1.953c3.905,1.953,11.716-3.905,11.716-8.787c0-0.977,0-0.977,1.953-0.977
		c8.787,1.953,13.669-9.764,5.858-13.669c-2.929-0.977-6.834,0.977-6.834,2.929c0,0.976-0.976,2.929-1.953,3.905
		c-0.976,0-0.976,0-0.976,0c0-0.977-0.977-0.977-1.953-0.977c0,0-1.953,0-3.905,0c-2.929,0-2.929-0.976-2.929-1.953
		c3.906-7.811-4.882-14.646-8.787-7.811c-1.953,1.953-1.953,2.929-6.834,1.953c-5.858-0.977-7.811,0-8.787,4.882
		c0,3.905-1.953,5.858-1.953,2.929c0-0.976-1.953-0.976-5.858-0.976c-5.858-0.977-6.834,0-7.811,1.953
		c-0.976,0.976-1.953,2.929-0.976,4.882c0,3.905-1.953,4.882-2.929,1.953c0-0.977-0.977-0.977-0.977-0.977
		c-0.976,0.977-1.953,0.977-4.882,0c-6.834-1.953-12.692,2.929-11.716,8.788c0,4.882,0,6.834-1.953,5.858
		c-3.905-0.976,0,2.929,3.906,4.882c3.905,1.953,11.716,1.953,13.669,0s1.953-0.976,2.929,0.977c0,4.882-0.977,9.764-1.953,8.787
		c0-0.977-0.976,0,0,0C57.318,98.762,68.058,100.715,72.939,97.786z M240.873,97.786c-1.952,0-3.905-0.976-4.881-1.953h-0.977
		c-2.93,0.977,0,1.953,4.882,1.953S244.779,97.786,240.873,97.786z M241.85,95.833c0,0-0.977-0.976-1.952-0.976
		c-1.953,0-1.953,0-1.953,0.976c0,0,0,0.977,1.953,0.977C240.873,96.81,241.85,95.833,241.85,95.833z M98.325,88.999
		c2.929,0,5.858,0.977,6.834,0.977c0.976,0,1.953,0,2.929-2.929c0.976-2.929,1.953-3.905,4.881-3.905c2.929,0,3.906,0,2.929,0
		c-2.929-1.953-6.834-1.953-8.787,0.976c-1.953,1.953-2.929,1.953-7.811,1.953c-5.858-0.976-10.74,0.977-12.692,4.882
		c-1.953,4.882-1.953,4.882,1.953,0.977C92.467,88.022,92.467,88.022,98.325,88.999z M259.425,89.975c0,0-1.953-0.977-3.906-0.977
		c-1.952,0-2.929,0-0.976,0C256.495,89.975,260.4,90.951,259.425,89.975z M363.895,86.069c0.977-2.929,2.93-28.314,1.953-28.314
		c0,0-2.93-0.976-5.858-0.976l-4.882-0.977v3.905c0.977,4.882,1.953,26.362,1.953,27.338c0.977,0.976,2.929,1.953,4.882,1.953
		C362.918,88.022,363.895,87.046,363.895,86.069z M240.873,81.188c-0.976,0-1.952,0-2.929,0c0,0,0,0,1.953,0
		C240.873,81.188,240.873,81.188,240.873,81.188z M210.606,65.566c19.527-2.929,33.196-11.716,32.22-21.48
		c0-2.929,0-2.929-0.977,0.977c-1.952,4.882-3.905,6.834-8.787,9.764c-3.905,1.953-5.858,1.953-16.598,1.953
		c-21.48,0-33.196-4.882-45.889-17.575l-7.811-7.811l-3.905,2.929c-4.882,1.953-8.787,5.858-7.811,7.811c0.977,0,0,0.977,0,0
		c-1.953-0.977-1.953-4.882-0.976-6.834c0.976-0.977,2.929-1.953,4.882-2.929c3.905-2.929,2.929-2.929-1.953-0.976
		c-7.811,2.929-7.811,10.74-0.976,18.551c8.787,7.811,22.456,13.669,38.078,14.645C200.843,66.542,201.819,66.542,210.606,65.566z
		 M126.64,51.897c1.953-1.953,4.882-3.905,5.858-5.858l1.953-1.953l-3.905,2.929c-7.811,3.905-9.764,5.858-9.764,6.834
		C121.758,54.826,121.758,54.826,126.64,51.897z M216.465,52.874c1.952,0,4.882-1.953,6.834-3.906l2.93-2.929l-2.93,1.953
		c-2.929,1.953-5.858,1.953-15.622,1.953c-12.693,0-12.693,0-20.503-3.906c-3.905-1.953-8.787-4.882-10.74-5.858
		c-6.834-4.882-6.834-4.882-1.953,0C185.221,50.92,202.795,56.779,216.465,52.874z M108.089,45.062
		c2.929-1.953,4.881-3.906,4.881-3.906c-0.976-0.976-12.692,5.858-12.692,6.835C101.254,48.968,102.23,48.968,108.089,45.062z
		 M220.37,46.039c4.882-0.976,5.858-0.976,7.811,0c0.977,0.977,2.93,1.953,3.905,1.953c1.953,0,2.93-0.977,1.953-3.906
		c0-3.905,0-3.905,2.929-4.882c5.858-0.976,6.835-1.953,2.93-5.858c-2.93-1.953-3.905-2.929-6.835-1.953
		c-3.905,0-3.905,0-6.834-2.929c-1.953-2.929-2.93-3.905-4.882-2.929c-1.953,0-3.906-0.976-4.882-2.929
		c-1.953-0.976-2.93-1.953-7.811-0.976c-3.906,0-5.858,0-4.882-0.977c0.976,0,4.882-0.976,7.811-0.976
		c6.834-0.977,11.716,0.976,14.646,6.834c2.929,3.905,2.929,3.905,3.905,1.953c0.977-2.929-0.977-9.764-2.93-13.669
		c-3.905-5.858-15.621-8.788-25.385-5.858c-9.764,1.953-25.386,11.716-30.268,18.551c-0.976,1.953,0,0.977,4.882-2.929
		c8.788-6.835,22.457-13.669,30.268-14.646c7.811-0.977,11.716,0.976,16.598,5.858c3.905,3.906,4.882,6.834,0,2.929
		c-7.811-6.834-25.385-1.953-39.054,11.716c-7.811,6.834-7.811,6.834,2.929,12.693C198.89,48.968,209.63,49.944,220.37,46.039z
		 M208.654,254.003l-1.953-1.953l3.905,0.976c4.882,0.977,5.858,0.977,5.858,2.929C216.465,256.932,211.583,256.932,208.654,254.003
		z M118.829,199.327c0-0.976,0.976-0.976,0.976-0.976s0.977,0,0.977,0.976c0,0-0.977,0.977-1.953,0.977V199.327z M111.018,186.634
		c0,0,0,0,0.977,0l0.976,0.977l-0.976,0.977C111.018,188.587,111.018,187.611,111.018,186.634z M336.557,125.124
		c0-0.977,0-1.953,0.977-2.929s0.977-1.953,0.977-2.929c0,0,0-0.976,0.976-0.976c2.93-0.977,2.93,0.976,0,4.882
		C337.533,125.124,336.557,126.1,336.557,125.124z M387.327,108.526c0-1.953,3.905-15.622,4.882-18.551
		c1.953-2.929,1.953-2.929,0-5.858c-1.952-1.953-1.952-1.953-0.977-1.953c1.953,0.977,4.882,5.858,3.906,7.811
		c0,0-0.977,2.929-1.953,6.834c-1.953,2.929-2.929,6.834-2.929,7.811c-0.977,1.953-1.953,3.906-1.953,3.906
		C387.327,108.526,387.327,108.526,387.327,108.526z M232.086,154.415c2.93,0,5.858-0.976,6.835-1.953
		c1.952-0.977,2.929-0.977,2.929-0.977c0.977,0.977-7.811,3.906-10.739,3.906C229.157,155.391,229.157,155.391,232.086,154.415z
		 M219.394,152.462c-3.905-2.929-2.929-2.929,1.953-0.977c1.952,1.953,2.929,1.953,1.952,1.953S221.347,153.438,219.394,152.462z
		 M224.275,145.627c-1.953,0-3.905-0.977-4.882-1.953c0,0-1.953,0-2.929,0c-0.977,0-0.977-0.977-0.977-1.953c0,0,0,0,0.977,0
		c5.857,2.929,13.669,3.905,16.598,2.929c1.953,0,3.905,0,4.882,0c1.953,0-4.882,2.929-7.811,1.953
		C228.181,146.604,225.252,146.604,224.275,145.627z M241.85,140.746c0,0,0.977-1.953,2.93-3.905
		c3.905-2.929,3.905-2.929,1.952,0.976C244.779,139.769,242.826,141.722,241.85,140.746z M226.229,139.769
		c-0.977-0.976-4.882-0.976-4.882-0.976c-1.953,0-10.74-3.906-11.717-4.882c-0.976,0-2.909-8.263,4.882-13.669
		c0.977-0.977,8.787-2.929,12.692-3.906c5.858,0,16.599,0.977,17.575,2.929c0,0,10.496,6.938,0,14.646
		c-6.942,3.8-4.882,2.929-4.882,2.929C235.992,138.793,227.204,140.746,226.229,139.769z M234.039,127.077
		c0-0.977-0.977-1.953-0.977-1.953c-0.977,0-1.952,0-1.952,0.976c0,1.953,0,1.953,0,0.977c-0.977-0.977-0.977-0.977-1.953,0
		c0,0.976,0,1.953,1.953,1.953C233.062,129.029,234.039,128.053,234.039,127.077z M247.708,139.769c0-0.976,0-1.953,0.977-1.953
		h0.977c0,0.977-0.977,1.953-0.977,1.953C247.708,139.769,247.708,139.769,247.708,139.769z M191.079,137.816
		c-2.929-0.976-2.929-1.953,0-0.976c0.977,0.976,2.929,0.976,4.882,0.976s2.929,0,0.977,0
		C194.984,139.769,194.008,139.769,191.079,137.816z M193.032,134.887c-2.929,0-3.905-0.976-3.905-1.953c0,0,0,0,0.977,0
		c0,0,1.953,0.977,4.881,0.977c1.953,0,3.906,0,3.906,0.976C198.89,135.864,196.938,135.864,193.032,134.887z M191.079,130.982
		c-0.976,0-1.953-0.976-1.953-1.953s0-0.977,3.905,0c2.929,0.977,4.882,1.953,4.882,2.929
		C198.89,132.935,194.008,132.935,191.079,130.982z M264.306,132.935c0-0.976,0.977-0.976,1.953-0.976
		c1.953,0,3.905-0.977,4.882-2.929c1.953-1.953,2.929-1.953,1.953-0.977c0,0.977-1.953,2.929-3.906,3.906
		C264.306,134.887,264.306,134.887,264.306,132.935z M33.885,127.077c-2.929-0.977-4.882-3.905-3.905-5.858
		c0.976-1.953,0.976-1.953,0.976,0c0.977,3.906,3.906,4.882,6.834,3.906c1.953-1.953,2.929-0.977,1.953,0.976
		C39.744,128.053,35.838,128.053,33.885,127.077z M253.566,111.455c0.977,0,1.952,0,1.952,0c0.977,0,0,0-0.976,0
		C253.566,111.455,253.566,111.455,253.566,111.455z M210.606,111.455c0,0,0-0.976,0.977-0.976c0.976-0.977,1.952-0.977,1.952-0.977
		c0,0.977-0.977,1.953-1.952,1.953C210.606,111.455,210.606,111.455,210.606,111.455z M58.294,79.235
		c0-2.929,0.976-3.905,3.905-3.905c5.858,0.977,10.74-1.953,12.693-8.787c0-0.977,0.976-0.977,2.929-0.977
		c1.953,0.977,1.953,0.977,0.977,1.953c-0.977,0.977-0.977,2.929-0.977,2.929c0,0.977-0.976,2.929-1.953,3.905
		c-0.976,1.953-0.976,1.953-1.953,0.977c0-0.977,0-0.977,0,0.977c0,0.976-0.977,0.976-5.858,0.976c-3.906-0.976-5.858,0-7.811,0.977
		C59.271,79.235,58.294,79.235,58.294,79.235z M91.491,65.566c0-0.977-0.977-1.953-0.977-0.977
		c-0.977,0.977-1.953,0.977-2.929,0.977l-1.953-0.977l1.953-2.929c1.953-2.929,2.929-2.929,4.882-2.929c2.929,0,2.929,0,2.929,2.929
		C94.419,65.566,92.467,67.519,91.491,65.566z M201.819,45.062c-1.953-0.977-1.953-0.977,0.976-0.977
		c1.953,0,3.906-0.976,5.858-2.929c4.881-4.882,1.953-11.716-4.882-10.74c-6.834,0-7.811,7.811-1.953,9.764
		c3.905,1.953,7.811-3.906,3.905-5.858c-0.977-0.976-1.953-1.953-0.977-1.953c0.977-0.976,2.929,0,3.906,2.929
		c0.976,2.929-0.977,5.858-4.882,6.834c-1.953,0-17.575-3.905-19.527-4.882c-0.976-0.977,9.764-11.716,10.74-10.74
		c1.953,0,3.906-0.977,2.929-0.977c0-0.976,0-0.976,0.977-0.976c0.976,0,4.882-0.977,7.811-0.977c3.905-0.977,5.857,0,6.834,0.977
		c1.953,0.976,1.953,1.953,0.977,3.905s0,2.929,0.977,4.882c2.929,3.905,8.787,2.929,7.811-2.929c0-0.976-0.977-1.953-1.952-1.953
		c-2.93,0-2.93,0-2.93,2.929c0,2.929-1.952,2.929-1.952,0c-0.977-4.882,5.857-5.858,8.787-1.953
		c1.952,1.953,2.929,2.929,1.952,3.905c-1.952,0.976-0.976,1.953,0.977,1.953c0.977,0,2.93,0,2.93,0c0.976,0,0.976,0,0.976,0.976
		c-0.976,0.977,1.953,0.977,3.906,0c0.976,0,0.976-0.976,0.976-1.953c-0.976-1.953-0.976-1.953,0.977,0
		c0.977,0.977,0.977,1.953,0.977,1.953c-0.977,1.953-6.835,1.953-8.787,0.977c-1.953-0.977-1.953-0.977-2.93,1.953
		c0,2.929,0,3.906,0,3.906c0.977,0,0.977,0,1.953,0.976c1.953,0.977,2.929,0,1.953-2.929c-1.953-1.953-1.953-2.929,0-0.976
		c0.976,0.976,0.976,2.929,0.976,3.905c0,0.977,0,1.953-1.952,0.977c-3.905-0.977-4.882-0.977-16.599,0
		C207.677,45.062,202.795,45.062,201.819,45.062z"/>
</g>
<g id="Layer_2">
	<g>
		<path fill="#DBCCB5" d="M313.596,88.552c0.994,0.104,1.742,0.689,2.284,1.696c0.809,1.556,0.839,3.041,0.136,4.476
			c-0.728,1.421-2.108,2.667-4.171,3.726l-0.948,0.488c-0.821,0.429-1.693,0.039-1.915-0.852l-1.394-5.54
			c-0.234-0.878,0.257-1.972,1.081-2.388l1.237-0.644C311.37,88.769,312.591,88.451,313.596,88.552z M267.901,126.764
			c-0.902,0.645-1.651,1.275-2.217,1.858l-1.049,1.933c-0.136,0.669-0.004,1.368,0.398,2.147l1.469,1.045
			c0.644,0.026,1.449-0.217,2.386-0.699c0.617-0.318,1.214-0.812,1.771-1.461l1.101-1.543l0.188-1.092
			c-0.237-1.038-0.804-3.331-0.878-3.612l-0.507-0.334C270.342,125.127,268.72,126.208,267.901,126.764z M337.163,91.166
			c-0.916,0.647-1.66,1.274-2.221,1.858c-0.557,0.632-0.933,1.292-1.064,1.94c-0.119,0.663,0.008,1.362,0.41,2.144l1.479,1.039
			c0.62,0.04,1.416-0.197,2.386-0.695c0.607-0.312,1.203-0.808,1.755-1.451l1.092-1.538l0.206-1.103
			c-0.248-1.046-0.799-3.336-0.892-3.61l-0.51-0.335C339.579,89.531,337.968,90.615,337.163,91.166z M240.644,125.033l-1.242,0.646
			c-0.821,0.414-1.32,1.503-1.071,2.38l1.396,5.543c0.233,0.891,1.082,1.283,1.909,0.858l0.93-0.479
			c2.069-1.063,3.456-2.308,4.169-3.745c0.72-1.433,0.691-2.931-0.129-4.464c-0.518-1.024-1.281-1.603-2.268-1.71
			C243.343,123.961,242.103,124.282,240.644,125.033z M366.247,5.891l56.443,109.738c1.347,2.616,0.32,5.826-2.299,7.174
			l-174.475,89.742c-2.617,1.347-5.828,0.311-7.173-2.305l-56.442-109.735c-1.347-2.616-0.319-5.824,2.3-7.172L359.075,3.591
			C361.694,2.246,364.902,3.275,366.247,5.891z M253.536,121.444c-0.704-1.367-1.521-2.401-2.501-3.059
			c-0.927-0.682-2.044-1.068-3.233-1.173c-1.233-0.09-2.55,0.075-3.944,0.488c-1.409,0.426-2.95,1.091-4.681,1.958l-7.957,4.098
			c-0.821,0.439-1.303,1.497-1.085,2.399l6.641,26.083c0.21,0.89,1.071,1.286,1.897,0.861l3.812-1.959
			c0.827-0.427,1.312-1.491,1.083-2.395l-1.602-6.334c-0.233-0.876,0.246-1.955,1.082-2.385l1.089-0.561
			c4.659-2.405,7.778-5.211,9.39-8.455C255.157,127.757,255.142,124.568,253.536,121.444z M275.243,114.917
			c-0.868-1.7-2.254-2.584-4.109-2.649c-1.855-0.073-4.336,0.692-7.438,2.29c-1.534,0.788-3.005,1.696-4.429,2.729
			c-1.054,0.766-1.148,0.852-1.77,1.367c-1.285,1.063-0.769,2.629-0.769,2.629l0.522,2.157c0.366,1.36,1.047,0.949,1.29,0.697
			c0.532-0.515,0.788-0.889,1.933-1.848c1.088-0.915,2.282-1.796,3.325-2.316c1.523-0.785,2.772-1.222,3.717-1.294
			c0.937-0.057,1.616,0.314,2.04,1.142l0.21,0.572l-0.374,0.62c-2.098,1.252-3.559,2.255-5.311,3.503
			c-1.726,1.212-3.115,2.504-4.151,3.815c-1.125,1.384-1.762,2.791-1.949,4.271c-0.16,1.475,0.158,2.983,0.963,4.548
			c0.757,1.472,1.902,2.401,3.409,2.815c1.503,0.394,3.096,0.141,4.721-0.695c1.028-0.529,1.783-1.021,2.28-1.451l1.519-1.579
			l1.113-1.676l0.95-1.687l0.031,0.014l0.171,0.684l0.006,0.026l0.004,0.007c0.226,0.823,0.989,1.208,1.752,0.903l0.019,0.006
			l0.069-0.035l2.926-1.505l0.549-0.283l0.043-0.044c0.713-0.478,1.112-1.462,0.905-2.271l-3.404-13.453l-0.361-1.053
			L275.243,114.917z M295.599,133.738l1.979-33.5c0,0,0.327-2.946-1.017-2.228c-0.896,0.473-4.573,2.351-4.573,2.351
			c-0.819,0.423-1.532,1.634-1.648,2.689c0,0-0.64,12.175-0.686,13.387l-0.637,0.319l-6.963-9.361
			c-0.605-0.71-1.8-0.966-2.845-0.427l-3.413,1.762c-0.822,0.424-0.992,1.338-0.395,2.039c0,0,10.186,13.427,12.492,16.63
			c1.229,1.798,1.132,2.271,1.132,2.271l-0.347,7.627c-0.092,1.058,0.514,1.571,1.336,1.149l3.943-2.038
			C294.772,135.992,295.52,134.79,295.599,133.738z M322.804,85.925c-0.71-1.364-1.541-2.396-2.5-3.056
			c-0.952-0.682-2.048-1.06-3.257-1.175c-1.221-0.102-2.536,0.066-3.944,0.492c-1.378,0.424-2.945,1.079-4.659,1.951l-7.964,4.105
			c-0.821,0.438-1.29,1.496-1.077,2.388l6.644,26.099c0.212,0.893,1.085,1.274,1.892,0.855l3.817-1.976
			c0.81-0.405,1.312-1.487,1.092-2.375l-1.626-6.333c-0.217-0.885,0.262-1.976,1.09-2.383l1.087-0.56
			c4.663-2.398,7.794-5.225,9.42-8.461C324.4,92.24,324.41,89.051,322.804,85.925z M344.496,79.312
			c-0.873-1.697-2.245-2.58-4.113-2.64c-1.867-0.065-4.347,0.691-7.439,2.282c-1.532,0.79-3.011,1.702-4.423,2.738
			c-1.052,0.753-1.148,0.848-1.777,1.366c-1.294,1.061-0.766,2.625-0.766,2.625l0.519,2.154c0.37,1.36,1.029,0.95,1.3,0.693
			c0.532-0.513,0.783-0.88,1.916-1.841c1.09-0.91,2.288-1.79,3.334-2.319c1.518-0.78,2.767-1.217,3.711-1.288
			c0.946-0.066,1.62,0.315,2.044,1.137l0.217,0.569l-0.373,0.625c-2.111,1.256-3.572,2.257-5.313,3.501
			c-1.712,1.209-3.115,2.5-4.159,3.82c-1.108,1.384-1.761,2.795-1.944,4.274c-0.168,1.468,0.154,2.984,0.953,4.537
			c0.76,1.479,1.912,2.415,3.423,2.815c1.507,0.384,3.092,0.153,4.719-0.684c1.011-0.542,1.782-1.016,2.272-1.453l1.52-1.57
			l1.127-1.678l0.933-1.696l0.038,0.021l0.187,0.677l-0.009,0.021l0.011,0.006c0.204,0.838,0.976,1.216,1.751,0.902l0.016,0.018
			l0.069-0.037l0,0c0.479-0.244,2.137-1.1,2.928-1.505l0.548-0.283l0.042-0.045c0.701-0.477,1.105-1.461,0.886-2.269l-3.391-13.448
			l-0.366-1.059L344.496,79.312z M351.876,63.874c-0.234-0.886-1.065-1.279-1.896-0.85l-3.409,1.753
			c-0.701,0.361-1.066,1.204-1.048,2.001l-0.039,0.394l0.218,0.843l6.388,24.153l0.189,0.746l0.016,0.014
			c0.205,0.793,0.925,1.109,1.652,0.868l0.106,0.048l3.544-1.823c0.698-0.361,1.073-1.221,1.04-2.027l0.04-0.366l-6.785-25.754
			L351.876,63.874z M357.1,57.365l-1.276,0.657l-0.546-1.059l-0.63,0.325l0.544,1.057l-0.429,0.222l0.271,0.528l0.431-0.22
			l1.014,1.973l0.8,0.823l1.025-0.136l0.346-0.212l0.345-0.273l-0.287-0.559l-0.03,0.015l-0.2,0.196l-0.295,0.209l-0.424,0.141
			l-0.303-0.093l-0.246-0.261l-0.242-0.451l-0.873-1.697l1.276-0.657L357.1,57.365z M363.949,55.494l-0.828-0.884l-1.09,0.096
			l-0.596,0.478l-0.448,0.813l-0.628-0.239l-0.722,0.178l-0.54,0.454l-0.402,0.683l-0.213-0.416l-0.611,0.314l1.909,3.71l0.61-0.313
			l-1.424-2.769l0.354-0.588l0.448-0.391l0.456-0.142l0.317,0.106l0.271,0.309l0.261,0.447l1.089,2.115l0.619-0.318l-1.22-2.373
			l-0.108-0.193l-0.104-0.177l0.357-0.608l0.452-0.4l0.45-0.139l0.322,0.102l0.268,0.315l0.273,0.433l1.088,2.118l0.615-0.318
			l-1.235-2.398L363.949,55.494z"/>
	</g>
	<g>
		<g>
			<path fill="#FFFFFF" d="M300.857,116.688H86.54c-8.902,0-16.14,7.332-16.14,16.348v124.653c0,9.014,7.237,16.354,16.14,16.354
				h214.318c8.902,0,16.14-7.34,16.14-16.354V133.037C316.997,124.021,309.755,116.688,300.857,116.688z"/>
		</g>
	</g>
	<g>
		<g>
			<path fill="#DBCCB5" stroke="#FFFFFF" stroke-miterlimit="10" d="M300.858,116.688H86.54c-8.901,0-16.14,7.332-16.14,16.348
				v124.654c0,9.013,7.238,16.354,16.14,16.354h214.319c8.901,0,16.14-7.34,16.14-16.354V133.037
				C316.998,124.021,309.755,116.688,300.858,116.688z M308.932,257.691c0,4.566-3.627,8.285-8.073,8.285H86.54
				c-4.45,0-8.069-3.719-8.069-8.285V133.037c0-4.566,3.623-8.28,8.069-8.28h214.319c4.446,0,8.073,3.713,8.073,8.28V257.691z"/>
			<path fill="#DBCCB5" stroke="#FFFFFF" stroke-miterlimit="10" d="M98.693,221.148c0.707-1.231,1.062-2.993,1.062-5.271
				c0-2.277-0.356-4.039-1.062-5.279c-0.712-1.235-1.94-1.851-3.698-1.851c-1.759,0-2.995,0.612-3.699,1.851
				c-0.709,1.24-1.061,3.002-1.061,5.279c0,2.279,0.355,4.037,1.061,5.271c0.708,1.229,1.94,1.846,3.699,1.846
				C96.753,222.994,97.989,222.381,98.693,221.148z M93.395,219.515c-0.263-0.845-0.39-2.054-0.39-3.638
				c0-1.665,0.127-2.895,0.39-3.695c0.264-0.8,0.794-1.201,1.604-1.201c0.806,0,1.336,0.401,1.584,1.201
				c0.251,0.8,0.375,2.03,0.375,3.695c0,1.584-0.124,2.808-0.375,3.638c-0.248,0.845-0.778,1.266-1.584,1.266
				C94.189,220.786,93.655,220.36,93.395,219.515z"/>
			<path fill="#DBCCB5" stroke="#FFFFFF" stroke-miterlimit="10" d="M107.855,222.657v-13.821h-2.271
				c0,0.123-0.038,0.309-0.103,0.558c-0.121,0.411-0.299,0.74-0.535,0.992c-0.343,0.363-0.787,0.6-1.334,0.717
				c-0.335,0.081-0.937,0.133-1.79,0.173v1.856h3.25v9.527h2.782V222.657z"/>
			<path fill="#DBCCB5" stroke="#FFFFFF" stroke-miterlimit="10" d="M115.315,217.013c-1.444,1.03-2.358,2-2.743,2.923
				c-0.402,0.818-0.612,1.724-0.639,2.721h9.463v-2.397h-6.029c0.165-0.285,0.381-0.535,0.633-0.756
				c0.25-0.215,0.718-0.565,1.395-1.05l1.088-0.767c0.916-0.652,1.573-1.231,1.977-1.766c0.607-0.791,0.917-1.7,0.917-2.72
				c0-1.339-0.433-2.406-1.298-3.215c-0.864-0.812-2.029-1.213-3.486-1.213c-1.854,0-3.141,0.69-3.861,2.066
				c-0.385,0.725-0.593,1.672-0.639,2.846h2.641c0.032-0.774,0.132-1.338,0.305-1.694c0.299-0.619,0.861-0.927,1.687-0.927
				c0.604,0,1.064,0.198,1.395,0.581c0.329,0.384,0.483,0.872,0.483,1.461c0,0.716-0.283,1.374-0.848,1.975
				C117.375,215.474,116.562,216.11,115.315,217.013z"/>
			<path fill="#DBCCB5" stroke="#FFFFFF" stroke-miterlimit="10" d="M127.42,220.786c-0.872,0-1.47-0.337-1.798-1.005
				c-0.179-0.362-0.268-0.812-0.268-1.37h-2.664c0.046,1.095,0.262,1.99,0.666,2.664c0.764,1.274,2.115,1.913,4.075,1.913
				c1.584,0,2.785-0.437,3.594-1.325c0.805-0.886,1.217-1.912,1.217-3.082c0-1.11-0.349-1.996-1.04-2.632
				c-0.464-0.423-0.82-0.639-1.064-0.639c0.329-0.123,0.649-0.364,0.953-0.719c0.484-0.554,0.723-1.245,0.723-2.054
				c0-1.15-0.402-2.066-1.216-2.747c-0.81-0.685-1.871-1.025-3.192-1.025c-0.707,0-1.308,0.08-1.795,0.251
				c-0.49,0.173-0.907,0.421-1.268,0.739c-0.482,0.458-0.826,0.961-1.05,1.5c-0.208,0.619-0.325,1.27-0.348,1.957h2.533
				c-0.012-0.679,0.133-1.221,0.433-1.631c0.303-0.406,0.771-0.607,1.411-0.607c0.558,0,0.988,0.167,1.297,0.496
				c0.306,0.332,0.461,0.756,0.461,1.285c0,0.813-0.302,1.355-0.905,1.621c-0.347,0.158-0.961,0.247-1.837,0.256v1.942
				c0.897,0,1.553,0.085,1.975,0.26c0.736,0.306,1.104,0.91,1.104,1.821c0,0.689-0.198,1.208-0.593,1.576
				C128.414,220.602,127.95,220.786,127.42,220.786z"/>
			<path fill="#DBCCB5" stroke="#FFFFFF" stroke-miterlimit="10" d="M152.507,222.657v-2.982h1.561v-2.121h-1.561v-8.636h-3.049
				l-5.078,8.385v2.372h5.469v2.982H152.507z M146.4,217.559l3.447-5.952v5.952H146.4z"/>
			<path fill="#DBCCB5" stroke="#FFFFFF" stroke-miterlimit="10" d="M164.779,218.085c0-1.468-0.423-2.583-1.275-3.351
				c-0.853-0.763-1.844-1.15-2.986-1.15c-0.566,0-1.045,0.069-1.437,0.214c-0.237,0.09-0.562,0.271-0.98,0.55l0.495-3.016h5.644
				v-2.311h-7.604l-0.968,7.631l2.429,0.118c0.22-0.412,0.539-0.699,0.964-0.853c0.241-0.081,0.522-0.125,0.855-0.125
				c0.698,0,1.21,0.245,1.54,0.732c0.324,0.485,0.491,1.076,0.491,1.79c0,0.716-0.178,1.305-0.525,1.786
				c-0.355,0.472-0.865,0.712-1.539,0.712c-0.581,0-1.022-0.166-1.333-0.479c-0.301-0.322-0.507-0.775-0.615-1.373h-2.708
				c0.096,1.294,0.566,2.297,1.405,3c0.845,0.71,1.925,1.053,3.239,1.053c1.627,0,2.855-0.497,3.677-1.509
				C164.364,220.502,164.779,219.365,164.779,218.085z"/>
			<path fill="#DBCCB5" stroke="#FFFFFF" stroke-miterlimit="10" d="M170.987,223.008c1.615,0,2.812-0.488,3.583-1.471
				c0.766-0.988,1.155-2.126,1.155-3.413c0-1.294-0.393-2.355-1.178-3.192c-0.787-0.827-1.787-1.243-3.013-1.243
				c-0.574,0-1.081,0.092-1.527,0.273c-0.441,0.187-0.833,0.473-1.17,0.877c0.077-1.062,0.213-1.875,0.42-2.422
				c0.374-0.992,1.006-1.488,1.884-1.488c0.59,0,1.035,0.222,1.321,0.655c0.171,0.258,0.26,0.512,0.26,0.729h2.707
				c-0.097-1.093-0.528-1.974-1.29-2.624c-0.762-0.655-1.782-0.988-3.068-0.988c-0.887,0-1.654,0.206-2.292,0.613
				c-0.64,0.404-1.156,0.94-1.551,1.61c-0.458,0.778-0.766,1.754-0.925,2.932c-0.089,0.664-0.131,1.52-0.131,2.568
				c0,1.798,0.316,3.267,0.959,4.406C167.961,222.283,169.248,223.008,170.987,223.008z M169.698,216.277
				c0.354-0.279,0.766-0.419,1.23-0.419c0.574,0,1.055,0.213,1.45,0.644c0.398,0.421,0.588,1.045,0.588,1.852
				c0,0.724-0.173,1.309-0.519,1.766c-0.345,0.458-0.817,0.684-1.426,0.684c-0.617,0-1.127-0.24-1.527-0.708
				c-0.402-0.477-0.6-1.082-0.6-1.824C168.899,217.361,169.167,216.691,169.698,216.277z"/>
			<path fill="#DBCCB5" stroke="#FFFFFF" stroke-miterlimit="10" d="M176.914,211.453h6.883c-0.674,0.656-1.511,1.813-2.51,3.472
				c-1.546,2.669-2.355,5.245-2.439,7.719h2.822c0-0.794,0.159-1.812,0.468-3.048c0.31-1.235,0.664-2.285,1.051-3.145
				c0.489-1.093,1.095-2.154,1.825-3.177c0.724-1.022,1.289-1.734,1.696-2.132v-2.133h-9.758L176.914,211.453z"/>
			<path fill="#DBCCB5" stroke="#FFFFFF" stroke-miterlimit="10" d="M206.932,221.785c0.864-0.81,1.294-1.804,1.294-2.963
				c0-0.776-0.176-1.479-0.521-2.108c-0.341-0.629-0.859-1.135-1.54-1.514c0.67-0.381,1.104-0.833,1.301-1.348
				c0.205-0.52,0.299-1.003,0.299-1.455c0-1.001-0.38-1.86-1.137-2.565c-0.758-0.709-1.826-1.059-3.206-1.059
				c-1.383,0-2.452,0.358-3.211,1.059c-0.759,0.7-1.14,1.564-1.14,2.565c0,0.452,0.1,0.936,0.307,1.455
				c0.196,0.516,0.635,1,1.304,1.446c-0.671,0.313-1.191,0.787-1.532,1.416c-0.352,0.628-0.527,1.332-0.527,2.105
				c0,1.164,0.394,2.15,1.193,2.966c0.794,0.816,1.963,1.223,3.506,1.223C204.864,223.016,206.072,222.602,206.932,221.785z
				 M202.14,211.426c0.312-0.306,0.736-0.463,1.286-0.463c0.555,0,0.978,0.146,1.283,0.463c0.302,0.308,0.45,0.733,0.45,1.279
				c0,0.502-0.148,0.91-0.45,1.232c-0.306,0.316-0.728,0.471-1.283,0.471c-0.554,0-0.975-0.155-1.286-0.471
				c-0.309-0.322-0.46-0.73-0.46-1.232C201.68,212.16,201.835,211.734,202.14,211.426z M201.444,218.643
				c0-0.708,0.173-1.239,0.539-1.608c0.36-0.367,0.844-0.552,1.449-0.552c0.612,0,1.095,0.185,1.452,0.552
				c0.36,0.369,0.539,0.9,0.539,1.608c0,0.679-0.179,1.209-0.527,1.582c-0.353,0.375-0.841,0.562-1.463,0.562
				c-0.62,0-1.107-0.187-1.457-0.562C201.614,219.848,201.444,219.321,201.444,218.643z"/>
			<path fill="#DBCCB5" stroke="#FFFFFF" stroke-miterlimit="10" d="M214.148,220.817c-0.457,0-0.833-0.126-1.112-0.382
				c-0.275-0.25-0.448-0.579-0.514-0.989h-2.708c0.121,1.172,0.592,2.071,1.422,2.679c0.822,0.616,1.75,0.919,2.792,0.919
				c2.169,0,3.661-1.062,4.479-3.192c0.423-1.117,0.634-2.51,0.634-4.181c0-1.719-0.22-3.108-0.666-4.164
				c-0.783-1.858-2.224-2.791-4.327-2.791c-1.364,0-2.471,0.458-3.328,1.37c-0.85,0.916-1.28,2.12-1.28,3.598
				c0,1.431,0.422,2.52,1.274,3.281c0.852,0.756,1.832,1.136,2.924,1.136c0.745,0,1.372-0.147,1.878-0.455
				c0.279-0.166,0.547-0.402,0.791-0.712c-0.055,1.05-0.17,1.848-0.371,2.387C215.675,220.329,215.044,220.817,214.148,220.817z
				 M215.392,215.583c-0.333,0.217-0.689,0.323-1.062,0.323c-0.692,0-1.204-0.206-1.532-0.608c-0.333-0.416-0.501-1.027-0.501-1.848
				c0-0.973,0.26-1.664,0.784-2.068c0.329-0.257,0.727-0.393,1.192-0.393c0.631,0,1.132,0.233,1.503,0.685
				c0.363,0.458,0.547,1.081,0.547,1.856C216.31,214.503,216.004,215.19,215.392,215.583z"/>
			<path fill="#DBCCB5" stroke="#FFFFFF" stroke-miterlimit="10" d="M227.188,222.657v-13.821h-2.267
				c0,0.123-0.035,0.309-0.105,0.558c-0.116,0.411-0.294,0.74-0.525,0.996c-0.349,0.362-0.79,0.6-1.333,0.716
				c-0.348,0.081-0.943,0.136-1.797,0.173v1.856h3.245v9.528h2.782V222.657z"/>
			<path fill="#DBCCB5" stroke="#FFFFFF" stroke-miterlimit="10" d="M235.332,219.506c0.248-0.22,0.724-0.565,1.398-1.05
				l1.088-0.769c0.91-0.652,1.573-1.235,1.979-1.766c0.604-0.794,0.911-1.7,0.911-2.72c0-1.339-0.43-2.406-1.29-3.215
				c-0.867-0.812-2.033-1.213-3.49-1.213c-1.855,0-3.142,0.69-3.861,2.066c-0.387,0.722-0.594,1.672-0.639,2.846h2.643
				c0.031-0.771,0.133-1.338,0.306-1.694c0.293-0.619,0.859-0.922,1.688-0.922c0.604,0,1.062,0.189,1.39,0.577
				c0.319,0.388,0.485,0.872,0.485,1.457c0,0.72-0.282,1.378-0.851,1.985c-0.365,0.388-1.176,1.023-2.431,1.923
				c-1.44,1.029-2.354,2.002-2.741,2.924c-0.403,0.817-0.613,1.723-0.636,2.719h9.464v-2.398h-6.039
				C234.871,219.975,235.084,219.725,235.332,219.506z"/>
			<path fill="#DBCCB5" stroke="#FFFFFF" stroke-miterlimit="10" d="M260.303,215.315c0.329-0.123,0.65-0.362,0.955-0.719
				c0.482-0.554,0.725-1.243,0.725-2.054c0-1.15-0.406-2.063-1.214-2.746c-0.81-0.687-1.871-1.026-3.187-1.026
				c-0.718,0-1.317,0.081-1.807,0.25c-0.488,0.176-0.905,0.423-1.267,0.742c-0.478,0.456-0.821,0.959-1.049,1.499
				c-0.21,0.619-0.325,1.27-0.353,1.956h2.533c-0.013-0.679,0.131-1.22,0.43-1.631c0.306-0.408,0.771-0.608,1.414-0.608
				c0.558,0,0.986,0.166,1.293,0.496c0.311,0.333,0.457,0.754,0.457,1.284c0,0.815-0.299,1.359-0.896,1.621
				c-0.352,0.158-0.959,0.248-1.846,0.256v1.944c0.898,0,1.562,0.085,1.979,0.261c0.732,0.304,1.105,0.908,1.105,1.82
				c0,0.688-0.202,1.208-0.595,1.575c-0.401,0.365-0.866,0.551-1.389,0.551c-0.868,0-1.472-0.337-1.798-1
				c-0.179-0.367-0.268-0.817-0.268-1.372h-2.665c0.04,1.097,0.264,1.992,0.663,2.666c0.762,1.278,2.119,1.915,4.074,1.915
				c1.589,0,2.786-0.438,3.598-1.327c0.811-0.887,1.213-1.913,1.213-3.083c0-1.108-0.348-1.991-1.037-2.629
				C260.908,215.527,260.552,215.315,260.303,215.315z"/>
			<path fill="#DBCCB5" stroke="#FFFFFF" stroke-miterlimit="10" d="M271.847,208.918h-3.057l-5.073,8.385v2.372h5.46v2.982h2.666
				v-2.982h1.558v-2.121h-1.558v-8.636H271.847z M269.181,217.559h-3.446l3.446-5.952V217.559z"/>
			<path fill="#DBCCB5" stroke="#FFFFFF" stroke-miterlimit="10" d="M279.849,213.584c-0.565,0-1.042,0.069-1.437,0.214
				c-0.232,0.09-0.562,0.271-0.977,0.55l0.497-3.016h5.639v-2.311h-7.604l-0.969,7.631l2.437,0.118
				c0.213-0.412,0.534-0.699,0.961-0.853c0.236-0.081,0.518-0.125,0.853-0.125c0.699,0,1.211,0.245,1.54,0.732
				c0.327,0.485,0.489,1.076,0.489,1.79c0,0.716-0.171,1.305-0.527,1.786c-0.352,0.472-0.863,0.712-1.533,0.712
				c-0.585,0-1.026-0.166-1.338-0.479c-0.297-0.322-0.506-0.775-0.61-1.373h-2.712c0.097,1.294,0.564,2.297,1.41,3
				c0.844,0.71,1.926,1.053,3.233,1.053c1.636,0,2.859-0.497,3.677-1.509c0.821-0.997,1.227-2.137,1.227-3.419
				c0-1.462-0.421-2.583-1.274-3.351C281.985,213.963,280.987,213.584,279.849,213.584z"/>
			<path fill="#DBCCB5" stroke="#FFFFFF" stroke-miterlimit="10" d="M290.869,213.684c-0.573,0-1.085,0.095-1.531,0.277
				c-0.439,0.185-0.836,0.473-1.169,0.874c0.077-1.058,0.221-1.873,0.418-2.419c0.375-0.992,1.003-1.489,1.888-1.489
				c0.584,0,1.036,0.222,1.323,0.655c0.167,0.26,0.254,0.512,0.254,0.728h2.71c-0.097-1.091-0.531-1.97-1.289-2.622
				c-0.761-0.656-1.783-0.988-3.065-0.988c-0.887,0-1.656,0.207-2.293,0.613c-0.635,0.402-1.153,0.94-1.548,1.611
				c-0.458,0.778-0.764,1.754-0.919,2.932c-0.089,0.661-0.137,1.518-0.137,2.568c0,1.798,0.319,3.264,0.96,4.404
				c0.83,1.452,2.112,2.179,3.848,2.179c1.619,0,2.817-0.496,3.586-1.48c0.769-0.984,1.151-2.122,1.151-3.403
				c0-1.302-0.391-2.363-1.173-3.192C293.1,214.105,292.096,213.684,290.869,213.684z M291.787,220.123
				c-0.344,0.458-0.818,0.681-1.423,0.681c-0.616,0-1.124-0.232-1.53-0.704c-0.398-0.47-0.597-1.078-0.597-1.82
				c0-0.919,0.269-1.585,0.795-2.003c0.357-0.279,0.768-0.419,1.232-0.419c0.569,0,1.053,0.213,1.448,0.644
				c0.398,0.421,0.589,1.045,0.589,1.852C292.304,219.077,292.131,219.667,291.787,220.123z"/>
			<rect x="121.562" y="170.396" fill="#DBCCB5" stroke="#FFFFFF" stroke-miterlimit="10" width="10.845" height="9.582"/>
			<rect x="94.427" y="170.396" fill="#DBCCB5" stroke="#FFFFFF" stroke-miterlimit="10" width="10.844" height="9.582"/>
			<path fill="#DBCCB5" stroke="#FFFFFF" stroke-miterlimit="10" d="M105.267,192.211v-8.193H95.088
				C96.552,188.45,100.48,191.708,105.267,192.211z"/>
			<rect x="109.3" y="184.018" fill="#DBCCB5" stroke="#FFFFFF" stroke-miterlimit="10" width="8.227" height="8.32"/>
			<path fill="#DBCCB5" stroke="#FFFFFF" stroke-miterlimit="10" d="M131.741,184.018h-10.179v8.193
				C126.354,191.708,130.274,188.45,131.741,184.018z"/>
			<path fill="#DBCCB5" stroke="#FFFFFF" stroke-miterlimit="10" d="M117.527,166.365h2.017h2.019h10.493
				c-1.259-5.343-6.031-9.332-11.756-9.332h-10.997v22.951h8.227v-13.623h-0.003V166.365z"/>
			<path fill="#DBCCB5" stroke="#FFFFFF" stroke-miterlimit="10" d="M105.267,157.161c-5.152,0.539-9.328,4.266-10.491,9.204h10.491
				V157.161z"/>
			<path fill="#DBCCB5" stroke="#FFFFFF" stroke-miterlimit="10" d="M265.374,182.217c12.387,0,22.468-10.077,22.468-22.464
				c0-12.387-10.081-22.467-22.468-22.467c-4.405,0-8.503,1.29-11.981,3.486c-3.215-1.765-6.891-2.774-10.81-2.774
				c-12.435,0-22.548,10.115-22.548,22.547c0,12.435,10.113,22.544,22.548,22.544c4.466,0,8.623-1.324,12.136-3.571
				C257.891,181.235,261.516,182.217,265.374,182.217z M265.374,141.315c10.168,0,18.435,8.265,18.435,18.43
				c0,10.163-8.267,18.43-18.435,18.43c-2.53,0-4.938-0.516-7.14-1.446c0.424-0.411,0.826-0.848,1.221-1.294h-2.824h-0.793h-0.326
				c-0.302-0.24-0.568-0.508-0.858-0.763c-0.047-0.034-0.083-0.076-0.133-0.111c-0.898-0.81-1.755-1.669-2.501-2.637h5.043h2.59
				h2.353c0.51-0.873,0.982-1.771,1.374-2.715h-2.262h-2.289h-8.549c-0.601-1.117-1.081-2.286-1.46-3.515h11.449h2.108h2.134
				c0.231-0.987,0.406-2.002,0.503-3.035h-2.118h-2.019h-12.734c-0.133-0.907-0.285-1.814-0.285-2.755
				c0-0.256,0.075-0.5,0.083-0.759h13.007h2.018h2.089c-0.067-1.004-0.173-1.994-0.362-2.958h-2.066h-2.108h-12.283
				c0.229-1.216,0.59-2.383,1.034-3.515h10.001h2.266h2.147c-0.396-1.049-0.844-2.064-1.375-3.034h-2.392h-2.446h-6.662
				c0.77-1.266,1.642-2.456,2.669-3.511h0.573h3.128h2.72c-0.844-1.008-1.765-1.93-2.766-2.778
				C259.622,142.093,262.399,141.315,265.374,141.315z"/>
		</g>
	</g>
</g>
</svg>
