<?xml version="1.0" standalone="no"?>
<!DOCTYPE svg PUBLIC "-//W3C//DTD SVG 1.1//EN" "http://www.w3.org/Graphics/SVG/1.1/DTD/svg11.dtd">
<svg width="100%" height="100%" viewBox="0 0 100 100" version="1.1" xmlns="http://www.w3.org/2000/svg" xmlns:xlink="http://www.w3.org/1999/xlink" xml:space="preserve" style="fill-rule:evenodd;clip-rule:evenodd;stroke-linejoin:round;stroke-miterlimit:1.41421;">
    <path d="M83.152,44.537L83.152,37.253L9.855,37.253L9.855,62.594C9.855,65.5 12.211,67.856 15.117,67.856L61.222,67.856C63.708,74.815 70.339,79.805 78.152,79.805C88.089,79.805 96.145,71.749 96.145,61.812C96.145,53.611 90.654,46.706 83.152,44.537ZM25.729,56.401C25.729,57.389 24.928,58.19 23.94,58.19L16.316,58.19C15.328,58.19 14.527,57.389 14.527,56.401L14.527,56.178C14.527,55.19 15.328,54.389 16.316,54.389L23.94,54.389C24.928,54.389 25.729,55.19 25.729,56.178L25.729,56.401ZM40.731,56.401C40.731,57.389 39.93,58.19 38.942,58.19L29.518,58.19C28.53,58.19 27.729,57.389 27.729,56.401L27.729,56.178C27.729,55.19 28.53,54.389 29.518,54.389L38.942,54.389C39.93,54.389 40.731,55.19 40.731,56.178L40.731,56.401ZM55.834,56.401C55.834,57.389 55.033,58.19 54.045,58.19L44.62,58.19C43.632,58.19 42.831,57.389 42.831,56.401L42.831,56.178C42.831,55.19 43.632,54.389 44.62,54.389L54.044,54.389C55.032,54.389 55.833,55.19 55.833,56.178L55.833,56.401L55.834,56.401ZM57.634,56.401L57.634,56.178C57.634,55.19 58.435,54.389 59.423,54.389L61.775,54.389C61.228,55.594 60.796,56.861 60.524,58.19L59.423,58.19C58.435,58.19 57.634,57.389 57.634,56.401ZM78.152,75.774C70.441,75.774 64.19,69.523 64.19,61.812C64.19,54.101 70.441,47.85 78.152,47.85C85.863,47.85 92.114,54.101 92.114,61.812C92.114,69.523 85.863,75.774 78.152,75.774ZM83.593,59.31L83.506,59.31L83.506,56.705C83.506,54.222 81.486,52.202 79.003,52.202L77.32,52.202C74.837,52.202 72.817,54.222 72.817,56.705L72.817,59.31L72.71,59.31C71.525,59.31 70.556,60.279 70.556,61.464L70.556,67.767C70.556,68.952 71.525,69.921 72.71,69.921L83.592,69.921C84.777,69.921 85.746,68.952 85.746,67.767L85.746,61.464C85.747,60.28 84.778,59.31 83.593,59.31ZM75.107,56.705C75.107,55.485 76.1,54.492 77.32,54.492L79.003,54.492C80.223,54.492 81.216,55.485 81.216,56.705L81.216,59.31L75.107,59.31L75.107,56.705ZM81.683,63.569L77.969,67.283C77.84,67.412 77.671,67.476 77.501,67.475C77.332,67.476 77.162,67.412 77.033,67.283L75.538,65.788C75.282,65.532 75.282,65.116 75.538,64.86C75.794,64.604 76.21,64.604 76.466,64.86L77.501,65.895L80.755,62.641C81.011,62.385 81.427,62.385 81.683,62.641C81.939,62.897 81.939,63.313 81.683,63.569ZM83.152,29.707L9.855,29.707L9.855,25.457C9.855,22.551 12.211,20.195 15.117,20.195L77.89,20.195C80.796,20.195 83.152,22.551 83.152,25.457L83.152,29.707Z" style="fill:rgb(219,204,181);fill-rule:nonzero;"/>
</svg>
