<?xml version="1.0" standalone="no"?>
<!DOCTYPE svg PUBLIC "-//W3C//DTD SVG 1.1//EN" "http://www.w3.org/Graphics/SVG/1.1/DTD/svg11.dtd">
<svg width="100%" height="100%" viewBox="0 0 100 100" version="1.1" xmlns="http://www.w3.org/2000/svg" xmlns:xlink="http://www.w3.org/1999/xlink" xml:space="preserve" style="fill-rule:evenodd;clip-rule:evenodd;stroke-linejoin:round;stroke-miterlimit:1.41421;">
    <g>
        <g>
            <path d="M56.255,19.755L52.674,19.755C51.641,15.755 47.707,11.961 43.008,11.961C37.522,11.961 33.075,16.755 33.075,21.755L58.38,21.755L56.255,19.755Z" style="fill:rgb(219,204,181);fill-rule:nonzero;"/>
            <path d="M43.008,33.688C48.494,33.688 52.941,29.755 52.941,23.755L33.075,23.755C33.075,29.755 37.522,33.688 43.008,33.688Z" style="fill:rgb(219,204,181);fill-rule:nonzero;"/>
            <path d="M69.022,60.755L59.584,40.195C58.572,37.966 56.35,36.755 53.903,36.755L34.937,36.755C31.931,36.755 29.353,39.017 28.802,41.972L26.269,55.636C34.298,57.443 40.297,64.723 40.297,73.297C40.297,75.159 40.014,76.755 39.489,78.755L48.464,78.755C50.537,78.755 52.248,77.052 52.358,74.982L53.533,52.955L62.883,69.477L79.664,68.383L86.053,60.755L69.022,60.755Z" style="fill:rgb(219,204,181);fill-rule:nonzero;"/>
            <path d="M92.09,38.835C92.09,37.686 91.159,36.755 90.01,36.755L72.17,36.755C71.021,36.755 70.09,37.686 70.09,38.835L70.09,56.675C70.09,57.824 71.021,58.755 72.17,58.755L90.01,58.755C91.159,58.755 92.09,57.824 92.09,56.675L92.09,38.835ZM85.09,44.495C85.09,44.639 84.974,44.755 84.83,44.755L77.35,44.755C77.206,44.755 77.09,44.639 77.09,44.495L77.09,42.015C77.09,41.871 77.206,41.755 77.35,41.755L84.83,41.755C84.974,41.755 85.09,41.871 85.09,42.015L85.09,44.495Z" style="fill:rgb(219,204,181);fill-rule:nonzero;"/>
            <path d="M34.804,64.644L18.962,81.225L14.735,71.246L18.301,68.295L20.826,74.562L33.301,62.84C30.612,60.101 26.872,58.399 22.73,58.399C14.545,58.399 7.91,65.034 7.91,73.219C7.91,81.404 14.545,88.039 22.73,88.039C30.915,88.039 37.55,81.404 37.55,73.219C37.551,70.019 36.528,67.065 34.804,64.644Z" style="fill:rgb(219,204,181);fill-rule:nonzero;"/>
        </g>
    </g>
</svg>
