<?xml version="1.0" encoding="utf-8"?>
<!-- Generator: Adobe Illustrator 15.0.0, SVG Export Plug-In . SVG Version: 6.00 Build 0)  -->
<!DOCTYPE svg PUBLIC "-//W3C//DTD SVG 1.1//EN" "http://www.w3.org/Graphics/SVG/1.1/DTD/svg11.dtd">
<svg version="1.1" id="Layer_1" xmlns="http://www.w3.org/2000/svg" xmlns:xlink="http://www.w3.org/1999/xlink" x="0px" y="0px"
	 width="154px" height="266px" viewBox="0 0 154 266" enable-background="new 0 0 154 266" xml:space="preserve">
<g>
	<g>
		<path fill="#B88964" d="M52.389,9.346c-21.264,0-18.846,14.929-18.846,14.929c-14.604,0-26.146,2.296-21.201,30.43
			C16.518,78.448,4.726,82.69,4.726,82.69s11.792,4.246,7.616,27.988c-4.945,28.132,6.598,30.429,21.201,30.429
			c0,0-2.418,14.93,18.846,14.93c18.844,0,19.786,2.295,24.027,8.229c4.242-5.934,5.184-8.229,24.029-8.229
			c21.266,0,18.843-14.93,18.843-14.93c14.605,0,26.147-2.297,21.202-30.429c-4.174-23.743,7.618-27.988,7.618-27.988
			s-11.792-4.242-7.618-27.985c4.945-28.133-6.597-30.43-21.202-30.43c0,0,2.423-14.929-18.843-14.929
			c-18.846,0-19.787-2.296-24.029-8.23C72.175,7.05,71.232,9.346,52.389,9.346"/>
		<path fill="#593340" d="M54.611,16.132c-19.298,0-17.102,13.546-17.102,13.546c-13.254,0-23.729,2.085-19.24,27.614
			c3.791,21.547-6.912,25.4-6.912,25.4s10.703,3.851,6.912,25.397c-4.488,25.529,5.986,27.612,19.24,27.612
			c0,0-2.196,13.549,17.102,13.549c17.102,0,17.957,2.085,21.804,7.47c3.851-5.385,4.706-7.47,21.807-7.47
			c19.296,0,17.1-13.549,17.1-13.549c13.257,0,23.73-2.083,19.24-27.612c-3.788-21.546,6.913-25.397,6.913-25.397
			s-10.701-3.853-6.913-25.4c4.49-25.529-5.983-27.614-19.24-27.614c0,0,2.196-13.546-17.1-13.546
			c-17.101,0-17.956-2.085-21.807-7.47C72.568,14.047,71.713,16.132,54.611,16.132"/>
		<path fill="#A3A3A3" d="M93.136,40.125c-7.814-1.118-16.37,8.632-16.37,8.632l0.807,0.594c0,0,8.728-8.577,14.212-6.61
			c4.113,1.478,2.335,4.914,0.123,5.166c-2.083,0.24-2.683-1.317-2.683-1.317c0.655,0.763,2.106,0.576,2.314-0.297
			c0.205-0.871-0.649-2.015-2.088-1.862c-1.439,0.155-2.197,2.122-1.019,3.54c1.402,1.686,4.561,1.938,7.06,0.266
			C97.991,46.561,99.319,41.009,93.136,40.125"/>
		<path fill="#A3A3A3" d="M59.697,40.125c-6.186,0.883-4.855,6.436-2.357,8.111c2.5,1.673,5.658,1.42,7.059-0.266
			c1.18-1.418,0.422-3.385-1.016-3.54c-1.44-0.153-2.295,0.991-2.088,1.862c0.205,0.873,1.657,1.06,2.312,0.297
			c0,0-0.6,1.557-2.684,1.317c-2.211-0.252-3.988-3.688,0.125-5.166c5.484-1.967,14.21,6.61,14.21,6.61l0.808-0.594
			C76.066,48.758,67.51,39.007,59.697,40.125"/>
		<path fill="#A3A3A3" d="M76.412,44.307c0.002-0.008,0.005-0.008,0.007,0l4.772-4.288c0-6.207-4.579-15.037-4.772-15.147v-0.005
			c0,0-0.002,0-0.003,0.002c-0.002-0.002-0.004-0.002-0.004-0.002v0.005c-0.191,0.11-4.771,8.94-4.771,15.147L76.412,44.307z"/>
		<path fill="#A3A3A3" d="M80.834,136.018c0,2.562-2.049,4.641-4.577,4.641c-2.527,0-4.575-2.078-4.575-4.641
			c0-2.559,2.048-4.637,4.575-4.637C78.785,131.381,80.834,133.458,80.834,136.018"/>
		<rect x="75.274" y="39.599" fill="#A3A3A3" width="2.283" height="16.751"/>
		<polygon fill="#A3A3A3" points="77.558,132.662 75.273,133.866 75.273,119.271 77.558,119.271 		"/>
		<path fill="#A36739" d="M115.796,62.887c0,3.314-2.652,6.002-5.921,6.002H42.959c-3.271,0-5.922-2.688-5.922-6.002v-2.807
			c0-3.314,2.65-6.002,5.922-6.002h66.916c3.269,0,5.921,2.688,5.921,6.002V62.887z"/>
		<path fill="#B88964" d="M111.921,81.641c0,3.314-2.651,6.002-5.924,6.002H46.834c-3.271,0-5.922-2.688-5.922-6.002v-2.809
			c0-3.314,2.651-6.002,5.922-6.002h59.163c3.272,0,5.924,2.688,5.924,6.002V81.641z"/>
		<path fill="#A36739" d="M106.802,100.392c0,3.314-2.653,6.002-5.923,6.002H51.955c-3.271,0-5.924-2.688-5.924-6.002v-2.806
			c0-3.315,2.652-6.002,5.924-6.002h48.924c3.27,0,5.923,2.688,5.923,6.002V100.392z"/>
		<path fill="#B88964" d="M101.043,119.145c0,3.314-2.652,6.002-5.921,6.002H57.713c-3.272,0-5.924-2.688-5.924-6.002v-2.809
			c0-3.314,2.651-6.002,5.924-6.002h37.409c3.269,0,5.921,2.688,5.921,6.002V119.145z"/>
	</g>
	<g>
		<g>
			<path fill="#593340" d="M14.966,178.272c0-0.624,0.241-0.997,0.774-0.997h5.042c0.484,0,0.775,0.373,0.775,0.997v39.782
				c0,5.842-2.472,8.951-6.979,8.951h-5.43c-4.557,0-6.98-3.109-6.98-8.951v-6.465c0-0.623,0.242-0.994,0.775-0.994h4.848
				c0.484,0,0.775,0.371,0.775,0.994v4.724c0,1.615,0.68,2.485,1.939,2.485h2.521c1.261,0,1.939-0.87,1.939-2.485V178.272z"/>
			<path fill="#593340" d="M42.695,227.006c-0.436,0-0.679-0.311-0.775-0.871l-1.357-9.077h-8.629l-1.309,9.077
				c-0.097,0.561-0.34,0.871-0.775,0.871h-5.187c-0.533,0-0.776-0.374-0.631-1.059l8.048-47.801
				c0.096-0.621,0.388-0.871,0.824-0.871h6.737c0.437,0,0.728,0.25,0.823,0.871l8.047,47.801c0.098,0.685-0.096,1.059-0.679,1.059
				H42.695z M36.248,188.154l-3.102,21.694h6.204L36.248,188.154z"/>
			<path fill="#593340" d="M77.6,177.275c0.631,0,0.97,0.438,0.97,1.244v47.242c0,0.807-0.339,1.244-0.97,1.244h-4.508
				c-0.631,0-0.969-0.438-0.969-1.244v-27.973h-0.34l-4.799,28.096c-0.146,0.747-0.484,1.121-1.066,1.121h-2.375
				c-0.582,0-0.922-0.374-1.066-1.121l-4.799-28.096h-0.34v27.973c0,0.807-0.34,1.244-0.97,1.244h-4.46
				c-0.63,0-0.969-0.438-0.969-1.244V178.52c0-0.807,0.339-1.244,0.969-1.244h6.398c0.582,0,0.922,0.373,1.066,1.121l5.381,30.955
				l5.381-30.955c0.146-0.748,0.486-1.121,1.066-1.121H77.6z"/>
			<path fill="#593340" d="M99.708,227.006c-0.437,0-0.678-0.311-0.775-0.871l-1.357-9.077h-8.627l-1.31,9.077
				c-0.098,0.561-0.339,0.871-0.775,0.871h-5.188c-0.533,0-0.775-0.374-0.631-1.059l8.048-47.801
				c0.098-0.621,0.387-0.871,0.823-0.871h6.738c0.438,0,0.727,0.25,0.823,0.871l8.046,47.801c0.098,0.685-0.094,1.059-0.678,1.059
				H99.708z M93.263,188.154l-3.104,21.694h6.205L93.263,188.154z"/>
			<path fill="#593340" d="M114.546,218.799h11.535c0.534,0,0.777,0.374,0.777,0.994v6.219c0,0.684-0.243,0.994-0.777,0.994h-17.354
				c-0.483,0-0.775-0.311-0.775-0.994v-47.739c0-0.624,0.292-0.997,0.775-0.997h5.043c0.53,0,0.775,0.373,0.775,0.997V218.799z"/>
			<path fill="#593340" d="M122.981,178.52c0-0.807,0.339-1.244,0.968-1.244h4.413c0.629,0,0.968,0.438,0.968,1.244v6.092
				c0,0.621-0.097,1.058-0.339,1.555l-2.617,5.098c-0.146,0.311-0.293,0.434-0.582,0.434h-2.183c-0.387,0-0.531-0.311-0.387-0.744
				l1.939-5.471h-1.213c-0.629,0-0.968-0.434-0.968-1.244V178.52z"/>
			<path fill="#593340" d="M143.681,177.275c4.557,0,6.979,3.109,6.979,8.953v6.59c0,0.62-0.242,0.993-0.773,0.993h-5.042
				c-0.484,0-0.776-0.373-0.776-0.993v-4.852c0-1.614-0.631-2.484-1.938-2.484h-2.328c-1.212,0-1.938,0.87-1.938,2.484v8.58
				l11.536,4.848c0.825,0.434,1.26,1.118,1.26,2.299v14.361c0,5.842-2.422,8.951-6.979,8.951h-5.431
				c-4.506,0-6.979-3.109-6.979-8.951v-6.528c0-0.685,0.289-0.994,0.772-0.994h5.043c0.534,0,0.776,0.31,0.776,0.994v4.787
				c0,1.678,0.726,2.485,1.938,2.485h2.328c1.26,0,1.938-0.808,1.938-2.485v-8.267l-11.489-4.851
				c-0.873-0.37-1.307-1.118-1.307-2.298v-14.67c0-5.844,2.473-8.953,6.979-8.953H143.681z"/>
		</g>
		<g>
			<path fill="#D99262" d="M2.555,243.536h3.873c1.563,0,2.609,0.312,3.136,0.929c0.397,0.463,0.649,1.031,0.758,1.701
				c0.107,0.671,0.161,1.645,0.161,2.923c0,1.275-0.158,2.319-0.473,3.128c-0.314,0.81-0.856,1.312-1.625,1.506
				c0.302,0.051,0.557,0.137,0.764,0.264c0.207,0.126,0.393,0.34,0.558,0.639c0.509,0.937,0.765,3.238,0.765,6.908
				c0,1.52,0.014,2.396,0.045,2.627c0.029,0.233,0.109,0.516,0.239,0.85H8.838c-0.139-0.245-0.221-0.705-0.246-1.387
				c-0.025-0.678-0.039-1.762-0.039-3.25v-2.367c0-1.497-0.097-2.446-0.291-2.854c-0.195-0.407-0.771-0.61-1.729-0.61l-2.047-0.121
				v10.59H2.555V243.536z M8.553,248.724c0-1.084-0.054-1.876-0.161-2.381c-0.108-0.505-0.29-0.847-0.545-1.026
				c-0.254-0.178-0.658-0.268-1.211-0.268H4.473v8.15h2.021c0.655,0,1.102-0.104,1.34-0.317c0.238-0.211,0.416-0.563,0.537-1.056
				c0.121-0.491,0.182-1.473,0.182-2.945V248.724z"/>
			<path fill="#D99262" d="M19.559,243.536h6.023v1.415h-4.094v8.393h3.848v1.479h-3.848v8.746h4.055v1.441h-5.984V243.536z"/>
			<path fill="#D99262" d="M33.22,246.832c0.13-1.166,0.493-2.049,1.094-2.654c0.601-0.607,1.539-0.91,2.817-0.91
				c1.277,0,2.168,0.303,2.668,0.902c0.276,0.326,0.493,0.652,0.648,0.977c0.328,0.66,0.496,2.23,0.505,4.711v1.207h-1.981v-1.342
				c0-1.886-0.064-3.03-0.194-3.43c-0.13-0.396-0.265-0.697-0.401-0.902c-0.251-0.373-0.7-0.561-1.348-0.561
				c-1.312,0-1.969,1.149-1.969,3.453c0,0.806,0.082,1.354,0.246,1.639c0.164,0.29,0.287,0.516,0.369,0.68
				c0.082,0.162,0.633,0.723,1.651,1.683l1.244,1.185c1.839,1.779,2.759,3.824,2.759,6.131c0,2.303-0.353,3.824-1.057,4.555
				c-0.703,0.732-1.746,1.1-3.127,1.1c-2.125,0-3.348-1.209-3.666-3.625c-0.113-0.812-0.169-1.814-0.169-3v-2.233h1.97v2.196
				c0,1.936,0.136,3.27,0.407,4c0.272,0.734,0.827,1.1,1.665,1.1s1.371-0.238,1.6-0.715c0.229-0.474,0.354-1.05,0.375-1.726
				s0.033-1.399,0.033-2.173c0-1.594-0.67-3.004-2.008-4.232l-1.322-1.184c-1.156-1.064-1.93-1.961-2.318-2.689
				c-0.389-0.727-0.582-1.469-0.582-2.221S33.158,247.361,33.22,246.832z"/>
			<path fill="#D99262" d="M48.045,243.536h6.438v1.415h-2.138v20.059H50.43v-20.059h-2.385V243.536z"/>
			<path fill="#D99262" d="M64.698,243.536h1.97l4.055,21.474h-1.866l-0.751-4.355h-4.56l-0.687,4.355h-1.826L64.698,243.536z
				 M67.846,259.152l-2.098-12.149h-0.025l-1.932,12.149H67.846z"/>
			<path fill="#D99262" d="M84.44,243.536h1.931v15.958c0,2.018-0.271,3.482-0.815,4.397c-0.545,0.915-1.603,1.373-3.175,1.373
				c-1.57,0-2.636-0.46-3.193-1.378c-0.555-0.918-0.834-2.383-0.834-4.393v-15.958h1.929v15.897c0,1.488,0.071,2.48,0.207,2.978
				c0.261,0.901,0.866,1.354,1.815,1.354c0.775,0,1.328-0.211,1.651-0.629c0.324-0.418,0.484-1.648,0.484-3.69V243.536z"/>
			<path fill="#D99262" d="M95.64,243.536h3.875c1.562,0,2.605,0.312,3.135,0.929c0.397,0.463,0.649,1.031,0.758,1.701
				c0.107,0.671,0.16,1.645,0.16,2.923c0,1.275-0.158,2.319-0.471,3.128c-0.315,0.81-0.858,1.312-1.626,1.506
				c0.3,0.051,0.556,0.137,0.764,0.264c0.207,0.126,0.395,0.34,0.557,0.639c0.51,0.937,0.766,3.238,0.766,6.908
				c0,1.52,0.013,2.396,0.045,2.627c0.029,0.233,0.11,0.516,0.239,0.85h-1.917c-0.141-0.245-0.222-0.705-0.247-1.387
				c-0.024-0.678-0.037-1.762-0.037-3.25v-2.367c0-1.497-0.098-2.446-0.293-2.854c-0.193-0.407-0.77-0.61-1.73-0.61l-2.046-0.121
				v10.59H95.64V243.536z M101.64,248.724c0-1.084-0.056-1.876-0.164-2.381c-0.106-0.505-0.289-0.847-0.543-1.026
				c-0.256-0.178-0.659-0.268-1.21-0.268h-2.166v8.15h2.022c0.655,0,1.103-0.104,1.339-0.317c0.239-0.211,0.419-0.563,0.54-1.056
				c0.121-0.491,0.182-1.473,0.182-2.945V248.724z"/>
			<path fill="#D99262" d="M114.962,243.536h1.97l4.056,21.474h-1.867l-0.75-4.355h-4.562l-0.687,4.355h-1.825L114.962,243.536z
				 M118.109,259.152l-2.099-12.149h-0.023l-1.932,12.149H118.109z"/>
			<path fill="#D99262" d="M135.84,243.536h1.684v21.474h-1.505l-5.245-16.179l0.129,5.808v10.371h-1.812v-21.474h1.348
				l5.593,16.604l-0.191-7.393V243.536z"/>
			<path fill="#D99262" d="M145.394,243.536h6.438v1.415h-2.139v20.059h-1.917v-20.059h-2.383V243.536z"/>
		</g>
	</g>
</g>
</svg>
